<svg id="Layer_1" data-name="Layer 1" xmlns="http://www.w3.org/2000/svg" viewBox="0 0 112.92 30.61">
  <defs>
    <style>
      .cls-1 {
        fill: #154734;
      }

      .cls-2 {
        fill: #ffce51;
      }

      .cls-3 {
        fill: #ed8b00;
      }
    </style>
  </defs>
  <title>lq_bywynd_rgb_pos</title>
  <path class="cls-1" d="M68.87,19.27h1.5a1.2,1.2,0,0,1,.87.29.78.78,0,0,1,.22.55h0a.81.81,0,0,1-.48.75.82.82,0,0,1,.67.81h0c0,.6-.49.92-1.24.92H68.87Zm2,.94c0-.26-.2-.42-.58-.42h-.84v.88h.8c.37,0,.62-.15.62-.45Zm-.49,1h-.93v.91h1c.4,0,.64-.16.64-.46h0c0-.28-.22-.44-.68-.44m9.21-1.9h.64L81,21.71l.81-2.44h.51l.81,2.44.79-2.44h.61L83.39,22.6h-.51l-.81-2.39-.82,2.39h-.51Zm7.46,2-1.33-2h.7l.93,1.47.94-1.47H89l-1.32,2V22.6h-.59Zm-13,0-1.32-2h.7l.92,1.47.94-1.47H76l-1.33,2V22.6H74.1Zm16.35-2H91l1.79,2.3v-2.3h.57V22.6h-.49L91,20.23V22.6h-.57Zm4.92,0h1.24a1.66,1.66,0,0,1,1.77,1.65h0a1.67,1.67,0,0,1-1.77,1.67H95.37Zm.59.53v2.27h.65a1.09,1.09,0,0,0,1.16-1.13h0a1.09,1.09,0,0,0-1.16-1.13Zm4-.53h.59v1.38h1.59V19.27h.58V22.6h-.58V21.19h-1.59V22.6H100Zm5.68,0h.56l1.45,3.33h-.61l-.34-.81h-1.58l-.34.81h-.6Zm.84,2-.57-1.34-.57,1.34Zm2.68-2h.63l1,1.57,1-1.57h.63V22.6h-.59V20.21l-1,1.57h0l-1-1.56V22.6h-.58ZM69.82,7.67c-.52,0-1.35,0-1.51,0s-.85,0-1.53,0c-.18,0-.27,0-.27.12s.07.12.22.12a3.32,3.32,0,0,1,.48,0c.43.1.54.31.57.76s0,.79,0,2.81v1.65c0,1.37,0,2.56-.77,3.29a2.56,2.56,0,0,1-1.82.71,2.46,2.46,0,0,1-1.66-.54c-.65-.53-1-1.34-1-3.26V11.52c0-2,0-2.39,0-2.81S62.68,8,63,8a2.72,2.72,0,0,1,.39,0c.13,0,.21,0,.21-.12s-.09-.12-.29-.12c-.48,0-1.31,0-1.63,0s-1.23,0-1.93,0c-.2,0-.29,0-.29.12s.08.12.22.12a3.44,3.44,0,0,1,.52,0c.43.1.54.31.57.76s0,.79,0,2.81v1.93c0,1.92.51,2.9,1.18,3.51a4.28,4.28,0,0,0,2.94.91,4,4,0,0,0,2.76-.95c1.11-1,1.26-2.52,1.26-4V11.52c0-2,0-2.39,0-2.81s.13-.69.49-.76a2.72,2.72,0,0,1,.39,0c.15,0,.23,0,.23-.12s-.09-.12-.27-.12m7.08,9.78c-.2,0-.49,0-.67-.05-.4-.06-.49-.3-.53-.65-.06-.57-.06-1.62-.06-2.9V11.52c0-2,0-2.39,0-2.81S75.8,8,76.16,8a3.18,3.18,0,0,1,.4,0c.13,0,.21,0,.21-.13s-.11-.11-.28-.11c-.5,0-1.28,0-1.61,0s-1.22,0-1.73,0c-.21,0-.31,0-.31.11s.08.13.21.13a1.78,1.78,0,0,1,.47.06c.3.06.43.29.46.74s0,.79,0,2.81v2.33c0,1.28,0,2.33-.06,2.88,0,.39-.12.61-.39.67a2.72,2.72,0,0,1-.48.05c-.15,0-.21,0-.21.11s.1.13.27.13c.53,0,1.36,0,1.67,0s1.19,0,2.06,0c.15,0,.25,0,.25-.13s-.06-.11-.21-.11m-34.1.07-.35,0c-.17,0-.42-.16-.73-.91-.54-1.27-1.88-4.68-2.08-5.14-.08-.19-.13-.27-.21-.27s-.13.1-.23.34l-2.1,5.24c-.16.42-.32.71-.71.76h-.26c-.06,0-.1,0-.1.07s0,.08.16.08l1,0,.88,0c.1,0,.15,0,.15-.08s0-.07-.13-.07H38c-.26,0-.34-.11-.34-.26a1.5,1.5,0,0,1,.13-.51l.45-1.19c0-.05,0-.07.07-.07h1.87s.06,0,.08.06l.67,1.77a.13.13,0,0,1-.08.19c-.08,0-.11,0-.11.08s.1.06.25.07h1.58c.3,0,.38,0,.38-.08s0-.07-.11-.07M40,15.07H38.44s0,0,0-.05L39.18,13s0-.07,0-.07,0,0,0,.07L40,15s0,.05,0,.05m-4.75,1.3c-.06,0-.08.05-.09.12a1,1,0,0,1-.21.51c-.21.22-.54.23-1,.23-.65,0-.87-.06-1-.18s-.18-.73-.18-1.8V13.78c0-1.27,0-1.5,0-1.77s.08-.44.31-.48l.32,0c.1,0,.15,0,.15-.08s-.05-.07-.17-.07l-1.14,0-1.14,0c-.13,0-.19,0-.19.07s0,.08.15.08l.27,0c.28.06.34.19.36.48s0,.5,0,1.77v1.47a16.59,16.59,0,0,1,0,1.78c0,.24-.07.43-.24.46a1.15,1.15,0,0,1-.3,0c-.1,0-.13,0-.13.07s.06.08.17.08l1,0c.68,0,1.23.05,2.43.05.43,0,.48,0,.53-.23a7.52,7.52,0,0,0,.12-1c0-.1,0-.14-.07-.14M90.6,7.67c-.65,0-1.15,0-1.3,0s-.91,0-1.6,0c-.2,0-.35,0-.35.12s.06.12.22.12a2.16,2.16,0,0,1,.7.08c.32.13.43.39.45,1.19l.13,6h-.07c-.22-.21-2-2.12-2.91-3-1.93-1.92-4-4.08-4.11-4.25s-.34-.41-.49-.41-.17.18-.17.45L81,15.74c0,1.15-.06,1.54-.41,1.64a2,2,0,0,1-.59.07c-.14,0-.22,0-.22.11s.12.13.3.13c.68,0,1.31,0,1.43,0s.78,0,1.64,0c.18,0,.3,0,.3-.13s-.08-.11-.22-.11a2.08,2.08,0,0,1-.69-.09c-.27-.1-.44-.44-.46-1.47l-.15-5.57h0c.24.25,1.71,1.91,3.15,3.34s3.07,3.1,3.91,3.9c.14.14.3.29.45.29s.17-.12.17-.41l.15-8.36c0-.74.12-1,.49-1.13a1.4,1.4,0,0,1,.39,0q.24,0,.24-.12c0-.1-.13-.12-.3-.12m21.9,8.23c0-.17-.1-.27-.32-.27h-.34v.9H112v-.37h.12l.22.37h.18l-.24-.38a.23.23,0,0,0,.22-.25M112,16v-.25h.12c.1,0,.21,0,.21.13s-.11.12-.21.12Zm.14-.72a.79.79,0,1,0,.78.78.78.78,0,0,0-.78-.78m0,1.43a.65.65,0,1,1,.64-.65.65.65,0,0,1-.64.65m.15.72a2.87,2.87,0,0,1-.55-.05c-.28-.07-.67-.25-1.17-1.45-.85-2-3-7.41-3.28-8.14-.13-.31-.21-.43-.33-.43s-.22.15-.37.53l-3.33,8.32c-.26.66-.52,1.11-1.13,1.19a2.63,2.63,0,0,1-.41,0c-.1,0-.15,0-.15.11s.08.13.25.13c.69,0,1.41,0,1.56,0,.41,0,1,0,1.4,0,.15,0,.23,0,.23-.13s0-.11-.2-.11h-.2c-.41,0-.53-.17-.53-.41a2.65,2.65,0,0,1,.2-.81l.72-1.89c0-.08,0-.11.12-.11h2.95a.13.13,0,0,1,.13.09l1.06,2.81a.22.22,0,0,1-.12.31c-.13,0-.18,0-.18.12s.16.09.39.1c1.06,0,2,0,2.51,0s.61,0,.61-.13-.07-.11-.18-.11m-4.47-3.88h-2.44s-.07,0,0-.09l1.22-3.26c0-.06,0-.12.08-.12s.05.06.06.12l1.19,3.27s0,.08-.06.08m-6.24-4.23c0,.2,0,.27.14.27s.11-.08.12-.21c0-.35,0-1.26,0-1.54s0-.28-.1-.28a6,6,0,0,1-1.27.13H95.26c-.44,0-.94,0-1.32-.06a3,3,0,0,1-.57-.16c-.08,0-.12.08-.16.25s-.28,1.31-.28,1.52,0,.22.12.22.12-.06.14-.16a1.77,1.77,0,0,1,.23-.47c.2-.29.52-.35,1.28-.38l2-.05v5.43c0,1.22,0,2.26-.07,2.82,0,.38-.12.67-.38.73a2.72,2.72,0,0,1-.48.05c-.16,0-.21,0-.21.11s.09.13.26.13c.53,0,1.37,0,1.67,0s1.21,0,2.08,0c.15,0,.25,0,.25-.13s-.06-.11-.21-.11-.49,0-.67-.05c-.4-.06-.48-.35-.52-.72-.07-.57-.07-1.61-.07-2.83V8.42l1.67,0c1.18,0,1.54.39,1.57.74ZM65.71,20.09a2.15,2.15,0,0,0-.25.06,8.79,8.79,0,0,1-3.12.27c-1.88-.16-3.76-.93-6.93-2.94l-1.23-.78A5.86,5.86,0,0,0,57,11.42c0-3.75-2.66-6.08-6.49-6.08a6.22,6.22,0,0,0-6.58,6.21,6.14,6.14,0,0,0,6.53,6.37,8.07,8.07,0,0,0,2.46-.4l.56.4c2.47,1.75,4.7,3,7.08,3.22a11.54,11.54,0,0,0,5.1-.72c.11,0,.2-.08.21-.17a.15.15,0,0,0-.13-.16M46.13,11.18c0-3.72,1.88-5.07,4-5.07S54.73,8,54.73,11.86c0,4.7-2.42,5.26-3.71,5.26-2.58,0-4.89-2.12-4.89-5.94"/>
  <g>
    <path class="cls-2" d="M14.34,9.65,14.17,0V9.65h.17l1-1.83ZM9.25.87l3.3,9.06.16,0L13,7.83ZM10.07,12h0a1.09,1.09,0,0,1,.08-.15L9.07,10.1,1.71,7.2h0ZM9.5,13.56l0-.16L7.91,12.11,0,11.89H0l9.5,1.67Zm1.75-2.91h0l-.41-2L4.92,3.37l6.2,7.39.13-.11m7.55,4.72h0l1.7,1.35-.07-.06,7.91.22-9.5-1.67s0,.11,0,.16M16,10,17.5,8.61,19.08.86h0L15.79,9.93h0L16,10Zm4.88,4.39,7.51-2.5-9.5,1.68a1,1,0,0,0,0,.17Zm-3.49-3.51,1.93-.77,4.14-6.74h0l-6.2,7.4a.69.69,0,0,1,.13.11m1,1.29,2.08-.06,6.2-4.91h0L18.27,12a.64.64,0,0,1,.08.14m-4.18,7H14L13,21l1.16,7.82V19.12Zm4.1-2.37h0l-.08.15h0l1.08,1.77,7.36,2.9h0ZM17.22,18l-.14.11h0l.42,2L27.78,30.61h0Zm-1.43.83h0l-.16.05-.3,2.05,3.76,7ZM9.5,15.21a1,1,0,0,1,0-.17l-2-.65L0,16.89H0Zm.57,1.55L10,16.61l-2.07.05-6.2,4.92,8.36-4.82Zm.77,3.39L9.25,27.91l3.3-9.07h0l-.16-.06ZM11.12,18,11,17.9l-1.93.77L4.92,25.41h0Z"/>
    <path class="cls-3" d="M12.71,9.88a4.7,4.7,0,0,1,1.46-.23V0Zm-1.59.88L4.92,3.37l5.23,8.5a4.7,4.7,0,0,1,1-1.11m3.22-1.11a5,5,0,0,1,1.45.28L19.08.86Zm-1.79.28L9.25.87l2,9.78a4.86,4.86,0,0,1,1.3-.72m15.79,7-9.48-3.15a4.62,4.62,0,0,1,.05.65,5.57,5.57,0,0,1-.07.83ZM10.07,12,1.71,7.2l7.82,6.2A4.62,4.62,0,0,1,10.07,12m8.76,1.54,9.51-1.68-10,.28a4.47,4.47,0,0,1,.48,1.4m-1.62-2.8,6.2-7.4L16,10a4.63,4.63,0,0,1,1.26.77M18.27,12l8.35-4.83-9.28,3.68A4.7,4.7,0,0,1,18.27,12m-4.1,16.75,1.46-9.88a4.7,4.7,0,0,1-1.46.23Zm1.62-9.93,3.3,9.06-2-9.78a4.65,4.65,0,0,1-1.29.72M17.21,18l10.57,12.6L18.19,16.9a4.74,4.74,0,0,1-1,1.11m1.06-1.26,8.36,4.82-7.83-6.2a4.35,4.35,0,0,1-.53,1.38m-9,11.16L14,19.12a4.91,4.91,0,0,1-1.45-.28Zm.82-11.15L1.71,21.58,11,17.9a4.43,4.43,0,0,1-.93-1.14M9.5,15.21,0,16.89l10-.28a4.74,4.74,0,0,1-.48-1.4M11.12,18l-6.2,7.39,7.47-6.63A5.1,5.1,0,0,1,11.12,18M9.43,14.38a5.67,5.67,0,0,1,.07-.82L0,11.89,9.48,15a4.65,4.65,0,0,1-.05-.66"/>
  </g>
</svg>
