<?xml version="1.0" encoding="utf-8"?>
<!-- Generator: Adobe Illustrator 22.1.0, SVG Export Plug-In . SVG Version: 6.00 Build 0)  -->
<svg version="1.1" id="Layer_1" xmlns="http://www.w3.org/2000/svg" xmlns:xlink="http://www.w3.org/1999/xlink" x="0px" y="0px"
	 viewBox="0 0 452 171.5" style="enable-background:new 0 0 452 171.5;" xml:space="preserve">
<style type="text/css">
	.st0{fill:#FFFFFF;}
	.st1{fill:#DB291C;}
	.st2{fill:#EC8B03;}
</style>
<g>
	<rect x="0" y="0" class="st0" width="427.9" height="171.5"/>
	<rect x="2.5" y="2.4" class="st1" width="423" height="138.9"/>
	<rect x="2.5" y="148.2" class="st2" width="423" height="20.8"/>
	<path class="st0" d="M91.3,51.2h13.3v51.7H91.3V51.2z M127.8,77.8c5.3,0,9-2.6,9-8c0-5.3-3.5-7.6-8.9-7.6h-3.8v15.6H127.8z
		 M220,91.1h17.9v11.8h-31.4V51.2H220V91.1z M242.2,51.2h34V63h-20.7v8.6h19.8v10.9h-19.8v8.7h20.7v11.8h-34V51.2z M357.3,76.1
		l18.3-24.9h-18.8l-17,23.8V51.2h-16.5v51.7h16.5V79.1l29.3,37.8c-7.2,4.5-15.9,7-25.3,7c-26.6,0-46.9-20.2-46.9-46.9
		c0-26.6,20.3-46.9,46.9-46.9c26.6,0,46.9,20.2,46.9,46.9c0,11.2-3.6,21.2-9.6,29L357.3,76.1z M150,68.3c0,7.6-4.3,12.7-9.6,14.9
		l13.2,19.7h-15.7l-13.8-21.7v21.7h-13.3V51.2h16.6C141.9,51.2,150,57,150,68.3L150,68.3z M64.6,62.5c-8.3,0-14,6.6-14,14.5
		c0,8,5.7,14.5,14,14.5c5.6,0,9.9-3,12.6-7.2l10.3,6.7c-4.7,7.7-13,12.7-23.1,12.7c-15.6,0-27.2-11.7-27.2-26.8
		c0-15.1,11.5-26.8,27.2-26.8c10.1,0,18.5,4.8,23.3,12.7l-10.5,6.9C74.3,65.4,70.3,62.5,64.6,62.5L64.6,62.5z M180.1,62.5
		c-8.3,0-14,6.6-14,14.5c0,8,5.7,14.5,14,14.5c5.6,0,9.9-3,12.6-7.2l10.3,6.7c-4.7,7.7-13,12.7-23.1,12.7
		c-15.6,0-27.2-11.7-27.2-26.8c0-15.1,11.5-26.8,27.2-26.8c10.1,0,18.5,4.8,23.3,12.7l-10.5,6.9C189.8,65.4,185.8,62.5,180.1,62.5z"
		/>
	<g>
		<path class="st1" d="M442.4,171.5c-5.3,0-9.6-4.1-9.6-9.7c0-5.6,4.4-9.7,9.6-9.7c5.3,0,9.6,4.1,9.6,9.7
			C452,167.4,447.6,171.5,442.4,171.5z M442.4,153.4c-4.5,0-8.2,3.5-8.2,8.3c0,4.8,3.7,8.3,8.2,8.3c4.5,0,8.2-3.5,8.2-8.3
			C450.6,156.9,446.9,153.4,442.4,153.4z M440.4,162.6v4.1H439v-10.2h3.9c2.1,0,3.5,1.1,3.5,3c0,1.6-1.1,2.7-2.6,3l3,4.2H445
			l-2.9-4.1H440.4z M443,157.9h-2.7v3.3h2.7c1.2,0,1.9-0.7,1.9-1.6C444.9,158.6,444.2,157.9,443,157.9z"/>
	</g>
</g>
</svg>
