<!-- Generator: Adobe Illustrator 23.1.0, SVG Export Plug-In  -->
<svg version="1.1" xmlns="http://www.w3.org/2000/svg" xmlns:xlink="http://www.w3.org/1999/xlink" x="0px" y="0px"
	 width="271.818px" height="184.283px" viewBox="0 0 271.818 184.283" style="enable-background:new 0 0 271.818 184.283;"
	 xml:space="preserve">
<style type="text/css">
	.st0{fill:#B05777;}
	.st1{fill:#F1755B;}
</style>
<defs>
</defs>
<g>
	<g>
		<path class="st0" d="M19.105,174.174c-0.013,2.989-1.147,4.87-3.103,4.862c-1.655-0.008-2.455-1.138-2.974-3.532l1.45-0.384
			c0.406,1.818,0.817,2.486,1.646,2.49c1.081,0.005,1.455-1.557,1.463-3.373c0.011-2.438-0.629-3.384-2.146-3.391l-0.345-0.002
			l0.006-1.426l0.528,0.003c1.288,0.005,1.844-0.889,1.854-3.119c0.007-1.494-0.541-2.44-1.323-2.443
			c-0.827-0.004-1.129,0.685-1.644,2.361l-1.4-0.42c0.538-1.929,1.164-3.375,3.119-3.367c1.84,0.009,2.774,1.761,2.766,3.83
			c-0.01,2.276-0.681,3.285-1.741,3.786C18.316,170.469,19.118,171.231,19.105,174.174z"/>
		<path class="st0" d="M27.39,168.001c-0.027,6.232-1.88,9.007-4.395,11.065l-0.822-1.199c1.983-1.395,3.282-3.826,3.661-6.653
			c-0.417,0.642-1.063,1.146-1.844,1.142c-2.001-0.009-2.865-2.197-2.854-4.934c0.012-2.713,1.103-4.962,3.195-4.953
			C26.355,162.478,27.404,164.506,27.39,168.001z M25.896,167.444c0.01-2.139-0.628-3.544-1.594-3.549
			c-1.012-0.004-1.662,1.442-1.671,3.488c-0.009,2.047,0.491,3.543,1.595,3.548C25.491,170.937,25.889,169.307,25.896,167.444z"/>
		<path class="st0" d="M39.971,173.345l-4.346-0.019c0.034,2.645,0.44,4.395,1.498,4.399c0.759,0.003,1.083-0.479,1.731-1.557
			l0.985,0.786c-0.649,1.216-1.39,2.179-2.746,2.173c-1.978-0.009-2.888-2.313-2.87-6.222c0.018-4.139,1.085-6.364,2.971-6.356
			c1.84,0.008,2.796,2.242,2.777,6.474L39.971,173.345z M38.551,171.983c-0.06-2.322-0.488-4.026-1.408-4.03
			c-0.781-0.004-1.385,1.213-1.489,4.018L38.551,171.983z"/>
		<path class="st0" d="M43.907,178.146c-0.003,0.575-0.373,1.011-0.994,1.008c-0.575-0.003-0.986-0.441-0.983-1.017
			c0.002-0.598,0.417-1.033,0.992-1.03C43.543,177.11,43.909,177.548,43.907,178.146z"/>
		<path class="st0" d="M60.184,178.976l-1.426-0.007l0.04-9.014c0.006-1.449-0.313-1.956-1.05-1.959
			c-0.437-0.002-0.943,0.295-1.383,0.707l-0.045,10.256l-1.426-0.007l0.04-9.014c0.006-1.449-0.313-1.956-1.05-1.959
			c-0.437-0.002-0.943,0.294-1.383,0.706l-0.045,10.256l-1.426-0.006l0.053-12.072l1.426,0.006l-0.002,0.598
			c0.485-0.457,1.084-0.846,1.843-0.842c0.828,0.003,1.264,0.35,1.629,0.995c0.716-0.617,1.36-0.982,2.234-0.979
			c1.448,0.006,2.019,1.228,2.01,3.228L60.184,178.976z"/>
		<path class="st0" d="M68.143,179.01l-1.426-0.006l0.003-0.575c-0.508,0.481-1.084,0.823-1.774,0.82
			c-1.563-0.007-2.292-1.436-2.281-4.034c0.012-2.736,0.937-3.997,2.685-3.989c0.575,0.002,1.011,0.165,1.4,0.443l0.009-1.978
			c0.005-1.127-0.384-1.612-1.166-1.615c-0.528-0.003-1.013,0.34-1.706,1.05l-0.846-1.084c0.854-0.848,1.73-1.372,2.65-1.368
			c1.563,0.007,2.504,0.608,2.493,2.908L68.143,179.01z M66.726,177.164l0.018-4.162c-0.412-0.255-0.664-0.417-1.354-0.42
			c-1.012-0.005-1.269,0.983-1.276,2.593c-0.006,1.449,0.241,2.715,1.115,2.719C65.688,177.896,66.286,177.622,66.726,177.164z"/>
		<path class="st0" d="M72.904,163.509c-0.003,0.552-0.419,1.079-0.948,1.077c-0.528-0.002-0.986-0.533-0.983-1.085
			c0.002-0.598,0.465-1.102,0.993-1.1C72.495,162.404,72.906,162.911,72.904,163.509z M72.56,179.03l-1.426-0.006l0.053-12.072
			l1.426,0.006L72.56,179.03z"/>
		<path class="st0" d="M81.138,179.067l-1.426-0.006l0.04-9.014c0.006-1.449-0.337-1.957-1.165-1.96
			c-0.506-0.002-1.059,0.294-1.498,0.706l-0.045,10.256l-1.426-0.006l0.053-12.072l1.426,0.006l-0.002,0.598
			c0.485-0.458,1.084-0.846,1.958-0.842c1.563,0.007,2.134,1.228,2.125,3.228L81.138,179.067z"/>
		<path class="st0" d="M93.568,176.408c-0.007,1.656-1.116,2.962-2.727,2.955c-1.426-0.007-2.248-1.067-2.656-2.495l1.222-0.708
			c0.386,1.244,0.797,1.82,1.464,1.823c0.851,0.004,1.29-0.638,1.294-1.442c0.004-1.035-0.177-1.68-1.688-2.997
			c-1.396-1.225-2.151-2.194-2.145-3.851c0.008-1.632,1.024-2.915,2.564-2.908c1.38,0.006,2.112,0.905,2.544,2.195l-1.292,0.707
			c-0.295-0.852-0.637-1.521-1.326-1.523c-0.667-0.003-1.083,0.548-1.087,1.398c-0.004,0.896,0.246,1.496,1.667,2.721
			C92.914,173.577,93.576,174.73,93.568,176.408z"/>
		<path class="st0" d="M99.475,177.699l-0.168,1.402c-0.414,0.182-0.852,0.295-1.381,0.292c-1.311-0.005-1.743-0.949-1.736-2.398
			l0.037-8.623l-1.012-0.005l0.006-1.311l1.012,0.005l0.017-3.817l1.384-0.868l-0.021,4.691l1.725,0.007l-0.006,1.311l-1.725-0.007
			l-0.037,8.577c-0.003,0.689,0.271,1.059,0.662,1.061C98.645,178.017,98.968,177.95,99.475,177.699z"/>
		<path class="st0" d="M103.176,178.405c-0.003,0.575-0.373,1.01-0.994,1.007c-0.575-0.002-0.986-0.44-0.983-1.016
			c0.002-0.598,0.417-1.033,0.992-1.031C102.812,177.368,103.178,177.807,103.176,178.405z"/>
		<path class="st0" d="M107.112,177.525l-1.028,3.813l-0.851-0.004l0.246-3.815L107.112,177.525z"/>
		<path class="st0" d="M119.661,179.235l-1.426-0.006l0.003-0.621c-0.438,0.481-1.062,0.869-1.729,0.866
			c-2.023-0.009-2.588-2.425-2.571-6.266c0.018-4.023,0.718-6.32,2.718-6.312c0.667,0.003,1.195,0.373,1.63,0.788l0.019-4.346
			l1.43-0.868L119.661,179.235z M118.243,177.412l0.037-8.416c-0.527-0.485-0.985-0.74-1.538-0.743
			c-1.08-0.005-1.342,2.109-1.354,4.915c-0.015,3.427,0.346,4.946,1.404,4.951C117.298,178.121,117.806,177.825,118.243,177.412z"/>
		<path class="st0" d="M128.496,173.249c-0.018,4.116-1.085,6.272-3.132,6.264s-3.095-2.175-3.077-6.291
			c0.019-4.116,1.085-6.296,3.132-6.287S128.515,169.133,128.496,173.249z M127.047,173.243c0.015-3.335-0.53-4.9-1.656-4.905
			c-1.127-0.005-1.64,1.556-1.654,4.891c-0.015,3.334,0.53,4.878,1.657,4.883C126.52,178.116,127.032,176.577,127.047,173.243z"/>
		<path class="st0" d="M138.872,167.246l-1.593,12.065l-1.311-0.006l-0.961-6.42c-0.201-1.312-0.289-2.187-0.376-3.451
			c-0.097,1.265-0.193,2.115-0.405,3.447l-1.018,6.412l-1.311-0.006l-1.488-12.079l1.472,0.007l0.46,5.475
			c0.107,1.402,0.24,2.761,0.282,3.864c0.096-1.103,0.285-2.46,0.498-3.792l0.853-5.538l1.334,0.006l0.803,5.546
			c0.201,1.334,0.38,2.691,0.468,3.796c0.05-1.104,0.193-2.46,0.315-3.862l0.506-5.471L138.872,167.246z"/>
		<path class="st0" d="M146.686,179.353l-1.425-0.006l0.04-9.014c0.006-1.449-0.337-1.957-1.165-1.961
			c-0.506-0.002-1.059,0.295-1.498,0.707l-0.045,10.256l-1.426-0.007l0.053-12.072l1.426,0.007l-0.002,0.598
			c0.485-0.458,1.084-0.846,1.958-0.842c1.563,0.006,2.133,1.228,2.124,3.228L146.686,179.353z"/>
		<path class="st0" d="M153.086,177.933l-0.168,1.401c-0.414,0.182-0.852,0.295-1.381,0.293c-1.311-0.006-1.743-0.95-1.736-2.399
			l0.037-8.623l-1.012-0.005l0.006-1.311l1.012,0.005l0.017-3.817l1.384-0.868l-0.021,4.691l1.725,0.008l-0.006,1.311l-1.725-0.008
			l-0.037,8.577c-0.003,0.689,0.271,1.059,0.662,1.061C152.256,178.25,152.579,178.183,153.086,177.933z"/>
		<path class="st0" d="M161.086,173.391c-0.018,4.116-1.085,6.272-3.132,6.264s-3.095-2.175-3.077-6.29
			c0.019-4.117,1.085-6.297,3.132-6.288S161.104,169.275,161.086,173.391z M159.637,173.385c0.015-3.335-0.53-4.901-1.656-4.906
			c-1.127-0.005-1.64,1.557-1.654,4.892c-0.015,3.334,0.53,4.877,1.657,4.882C159.109,178.257,159.622,176.719,159.637,173.385z"/>
		<path class="st0" d="M171.462,167.388l-1.593,12.066l-1.311-0.006l-0.961-6.421c-0.201-1.312-0.289-2.186-0.376-3.45
			c-0.097,1.264-0.193,2.115-0.405,3.447l-1.018,6.411l-1.311-0.005L163,167.352l1.472,0.006l0.46,5.475
			c0.107,1.403,0.24,2.762,0.282,3.865c0.096-1.104,0.285-2.46,0.498-3.792l0.853-5.538l1.334,0.006l0.803,5.545
			c0.201,1.334,0.38,2.692,0.468,3.796c0.05-1.103,0.193-2.46,0.315-3.861l0.506-5.471L171.462,167.388z"/>
		<path class="st0" d="M179.276,179.495l-1.426-0.007l0.04-9.014c0.006-1.449-0.337-1.956-1.165-1.96
			c-0.506-0.002-1.059,0.294-1.498,0.706l-0.045,10.256l-1.426-0.006l0.053-12.072l1.426,0.006l-0.002,0.598
			c0.485-0.458,1.084-0.846,1.958-0.842c1.563,0.007,2.134,1.229,2.125,3.229L179.276,179.495z"/>
		<path class="st0" d="M192.027,177.25c-0.56,1.585-1.345,2.547-2.587,2.542c-1.932-0.009-2.934-2.313-2.916-6.222
			c0.018-4.139,1.085-6.364,2.994-6.356c1.472,0.007,2.11,1.204,2.494,2.701l-1.268,0.639c-0.316-1.129-0.543-1.935-1.278-1.938
			c-0.92-0.004-1.479,1.488-1.493,4.938c-0.013,2.874,0.369,4.831,1.519,4.836c0.599,0.003,0.877-0.525,1.389-1.834L192.027,177.25z
			"/>
		<path class="st0" d="M199.93,179.585l-1.426-0.007l0.04-9.014c0.006-1.449-0.337-1.956-1.165-1.96
			c-0.506-0.002-1.059,0.294-1.498,0.706l-0.045,10.256l-1.426-0.006l0.069-15.89l1.43-0.868l-0.022,5.289
			c0.485-0.457,1.084-0.846,1.958-0.842c1.563,0.007,2.134,1.229,2.125,3.229L199.93,179.585z"/>
		<path class="st0" d="M207.887,179.619l-1.426-0.006l0.003-0.575c-0.508,0.481-1.084,0.823-1.774,0.82
			c-1.563-0.007-2.292-1.436-2.281-4.034c0.012-2.736,0.937-3.997,2.685-3.989c0.575,0.002,1.011,0.165,1.4,0.443l0.009-1.978
			c0.005-1.127-0.384-1.612-1.165-1.615c-0.529-0.003-1.014,0.34-1.707,1.05l-0.846-1.084c0.854-0.848,1.73-1.372,2.65-1.368
			c1.563,0.007,2.504,0.608,2.493,2.908L207.887,179.619z M206.47,177.774l0.018-4.162c-0.412-0.255-0.664-0.417-1.354-0.42
			c-1.012-0.005-1.269,0.983-1.276,2.593c-0.006,1.449,0.241,2.715,1.115,2.719C205.432,178.505,206.03,178.232,206.47,177.774z"/>
		<path class="st0" d="M219.915,179.672l-1.426-0.006l0.04-9.014c0.006-1.449-0.313-1.957-1.05-1.96
			c-0.437-0.002-0.943,0.295-1.383,0.707l-0.045,10.256l-1.426-0.007l0.04-9.014c0.006-1.449-0.313-1.956-1.05-1.959
			c-0.437-0.002-0.943,0.294-1.383,0.706l-0.045,10.256l-1.426-0.006l0.053-12.072l1.426,0.006l-0.002,0.598
			c0.485-0.457,1.084-0.846,1.843-0.842c0.828,0.003,1.264,0.35,1.629,0.995c0.716-0.617,1.36-0.982,2.234-0.979
			c1.448,0.006,2.019,1.228,2.01,3.228L219.915,179.672z"/>
		<path class="st0" d="M228.566,173.639c-0.018,4.023-0.717,6.32-2.718,6.312c-0.667-0.002-1.193-0.373-1.629-0.789l-0.019,4.094
			l-1.43,0.868l0.072-16.511l1.426,0.006l-0.003,0.621c0.44-0.481,1.063-0.869,1.729-0.866
			C228.019,167.382,228.584,169.798,228.566,173.639z M227.118,173.679c0.015-3.427-0.347-4.946-1.404-4.95
			c-0.506-0.003-1.013,0.294-1.452,0.706l-0.036,8.416c0.526,0.486,0.985,0.741,1.537,0.743
			C226.844,178.599,227.106,176.484,227.118,173.679z"/>
		<path class="st0" d="M236.223,179.743l-1.426-0.007l0.003-0.575c-0.508,0.481-1.084,0.824-1.774,0.821
			c-1.563-0.007-2.292-1.437-2.281-4.035c0.012-2.736,0.937-3.997,2.685-3.989c0.575,0.003,1.011,0.166,1.4,0.443l0.009-1.978
			c0.005-1.127-0.384-1.611-1.165-1.615c-0.529-0.002-1.014,0.341-1.707,1.051l-0.846-1.084c0.854-0.848,1.73-1.372,2.65-1.368
			c1.563,0.007,2.504,0.608,2.493,2.908L236.223,179.743z M234.806,177.897l0.018-4.162c-0.412-0.254-0.664-0.417-1.354-0.42
			c-1.012-0.004-1.269,0.984-1.276,2.594c-0.006,1.449,0.241,2.715,1.115,2.719C233.768,178.629,234.366,178.355,234.806,177.897z"
			/>
		<path class="st0" d="M240.983,164.243c-0.003,0.552-0.419,1.079-0.948,1.077c-0.528-0.003-0.986-0.534-0.983-1.086
			c0.002-0.598,0.465-1.102,0.993-1.099C240.574,163.137,240.985,163.645,240.983,164.243z M240.639,179.763l-1.426-0.007
			l0.053-12.072l1.426,0.007L240.639,179.763z"/>
		<path class="st0" d="M249.106,178.672c-0.014,3.242-0.803,4.665-3.704,5.55l-0.453-1.198c2.141-0.681,2.72-1.667,2.728-3.483
			l0.002-0.368c-0.438,0.481-1.062,0.869-1.729,0.866c-2.023-0.009-2.587-2.425-2.57-6.266c0.018-4.023,0.717-6.32,2.717-6.312
			c0.667,0.003,1.195,0.373,1.63,0.788l0.002-0.528l1.426,0.006L249.106,178.672z M247.684,177.977l0.037-8.416
			c-0.527-0.485-0.985-0.74-1.538-0.743c-1.08-0.005-1.342,2.109-1.354,4.915c-0.015,3.427,0.346,4.946,1.404,4.95
			C246.738,178.686,247.246,178.389,247.684,177.977z"/>
		<path class="st0" d="M257.565,179.836l-1.426-0.006l0.04-9.014c0.006-1.449-0.337-1.957-1.165-1.961
			c-0.506-0.002-1.059,0.295-1.498,0.707l-0.045,10.256l-1.426-0.007l0.053-12.072l1.426,0.007l-0.002,0.598
			c0.485-0.458,1.084-0.846,1.958-0.842c1.563,0.007,2.134,1.228,2.125,3.228L257.565,179.836z"/>
	</g>
</g>
<g>
	<g>
		<path class="st1" d="M7.105,143.418c-0.018,4.116-1.085,6.272-3.132,6.264s-3.095-2.175-3.077-6.291
			c0.019-4.116,1.085-6.296,3.132-6.287S7.124,139.302,7.105,143.418z M5.656,143.411c0.015-3.335-0.53-4.9-1.656-4.905
			c-1.127-0.005-1.64,1.557-1.654,4.891s0.53,4.878,1.657,4.883C5.129,148.285,5.642,146.745,5.656,143.411z"/>
		<path class="st1" d="M15.454,143.409c-0.018,4.023-0.717,6.32-2.718,6.312c-0.667-0.003-1.193-0.373-1.629-0.789l-0.019,4.094
			l-1.43,0.867l0.072-16.511l1.426,0.007l-0.003,0.621c0.44-0.481,1.063-0.87,1.729-0.867
			C14.906,137.151,15.472,139.568,15.454,143.409z M14.006,143.449c0.015-3.427-0.347-4.946-1.404-4.951
			c-0.506-0.002-1.013,0.295-1.452,0.707l-0.036,8.416c0.526,0.485,0.985,0.74,1.537,0.743
			C13.731,148.368,13.994,146.253,14.006,143.449z"/>
		<path class="st1" d="M23.456,143.972l-4.346-0.02c0.034,2.646,0.44,4.395,1.498,4.399c0.759,0.004,1.083-0.479,1.731-1.557
			l0.985,0.786c-0.649,1.216-1.39,2.179-2.746,2.173c-1.978-0.009-2.888-2.313-2.87-6.222c0.018-4.139,1.085-6.364,2.971-6.356
			c1.84,0.008,2.796,2.243,2.777,6.475L23.456,143.972z M22.036,142.609c-0.06-2.322-0.488-4.026-1.408-4.03
			c-0.781-0.003-1.385,1.213-1.489,4.018L22.036,142.609z"/>
		<path class="st1" d="M31.574,149.549l-1.426-0.006l0.04-9.014c0.006-1.449-0.337-1.957-1.165-1.96
			c-0.506-0.003-1.059,0.294-1.498,0.706l-0.045,10.256l-1.426-0.007l0.053-12.072l1.426,0.007l-0.002,0.598
			c0.485-0.458,1.084-0.846,1.958-0.842c1.563,0.007,2.134,1.228,2.125,3.228L31.574,149.549z"/>
		<path class="st1" d="M44.569,144.064l-4.346-0.019c0.034,2.645,0.44,4.395,1.498,4.398c0.759,0.004,1.083-0.479,1.731-1.557
			l0.985,0.787c-0.649,1.216-1.39,2.178-2.746,2.172c-1.978-0.009-2.888-2.313-2.87-6.222c0.018-4.139,1.085-6.364,2.971-6.356
			c1.84,0.009,2.796,2.243,2.777,6.475L44.569,144.064z M43.149,142.702c-0.06-2.323-0.488-4.027-1.408-4.031
			c-0.781-0.003-1.385,1.213-1.489,4.019L43.149,142.702z"/>
		<path class="st1" d="M52.509,137.568L50.11,149.63l-1.447-0.007l-2.293-12.082l1.518,0.007l1.096,7.041
			c0.179,1.174,0.335,2.209,0.423,3.152c0.097-0.942,0.262-1.977,0.451-3.148l1.156-7.031L52.509,137.568z"/>
		<path class="st1" d="M59.979,144.131l-4.346-0.02c0.034,2.646,0.44,4.395,1.498,4.399c0.759,0.004,1.083-0.479,1.731-1.557
			l0.985,0.786c-0.649,1.216-1.39,2.179-2.746,2.173c-1.978-0.009-2.888-2.313-2.87-6.222c0.018-4.139,1.085-6.364,2.971-6.356
			c1.84,0.009,2.796,2.243,2.777,6.475L59.979,144.131z M58.559,142.768c-0.06-2.322-0.488-4.026-1.408-4.03
			c-0.781-0.003-1.385,1.213-1.489,4.019L58.559,142.768z"/>
		<path class="st1" d="M66.885,137.608l-0.443,1.493c-0.39-0.209-0.666-0.279-1.103-0.281c-0.529-0.003-0.967,0.271-1.291,0.639
			l-0.045,10.232l-1.426-0.006l0.053-12.072l1.426,0.006l-0.002,0.598c0.439-0.48,1.015-0.847,1.705-0.843
			C66.311,137.375,66.587,137.468,66.885,137.608z"/>
		<path class="st1" d="M74.336,137.663l-3.268,16.313l-1.426-0.007l0.938-3.859l-2.384-12.474l1.518,0.007l1.097,7.041
			c0.179,1.174,0.335,2.21,0.423,3.152c0.096-0.941,0.262-1.977,0.451-3.148l1.157-7.031L74.336,137.663z"/>
		<path class="st1" d="M86.634,149.789l-1.426-0.006l0.003-0.621c-0.438,0.481-1.062,0.869-1.729,0.866
			c-2.023-0.009-2.588-2.426-2.571-6.267c0.018-4.023,0.718-6.32,2.718-6.312c0.667,0.003,1.195,0.374,1.63,0.789l0.019-4.346
			l1.43-0.868L86.634,149.789z M85.216,147.967l0.037-8.416c-0.527-0.486-0.985-0.741-1.538-0.743
			c-1.08-0.005-1.342,2.109-1.354,4.915c-0.015,3.427,0.346,4.945,1.404,4.95C84.271,148.675,84.778,148.379,85.216,147.967z"/>
		<path class="st1" d="M94.66,149.825l-1.426-0.007l0.003-0.575c-0.508,0.481-1.084,0.824-1.774,0.821
			c-1.563-0.007-2.292-1.437-2.281-4.035c0.012-2.736,0.937-3.997,2.685-3.989c0.575,0.003,1.011,0.166,1.4,0.443l0.009-1.978
			c0.005-1.127-0.384-1.611-1.165-1.615c-0.529-0.002-1.014,0.341-1.707,1.051l-0.846-1.084c0.854-0.848,1.73-1.373,2.65-1.368
			c1.563,0.007,2.504,0.608,2.493,2.908L94.66,149.825z M93.243,147.978l0.018-4.162c-0.412-0.254-0.664-0.417-1.354-0.42
			c-1.012-0.004-1.269,0.984-1.276,2.594c-0.006,1.449,0.241,2.715,1.115,2.719C92.205,148.71,92.804,148.436,93.243,147.978z"/>
		<path class="st1" d="M102.878,137.787L99.61,154.1l-1.426-0.006l0.938-3.859l-2.384-12.474l1.518,0.007l1.097,7.041
			c0.179,1.173,0.335,2.209,0.423,3.152c0.097-0.942,0.262-1.977,0.451-3.148l1.156-7.031L102.878,137.787z"/>
		<path class="st0" d="M112.025,149.9l-1.448-0.006l0.06-13.521l-1.771-0.008l0.004-0.988c1.289-0.109,1.773-0.429,2.054-1.578
			l1.173,0.005L112.025,149.9z"/>
		<path class="st0" d="M117.407,149.923l-1.448-0.006l0.06-13.521l-1.771-0.008l0.004-0.988c1.289-0.109,1.773-0.429,2.054-1.578
			l1.173,0.005L117.407,149.923z"/>
		<path class="st0" d="M125.617,149.959l-1.426-0.006l0.003-0.575c-0.508,0.48-1.084,0.823-1.774,0.82
			c-1.563-0.007-2.292-1.437-2.281-4.035c0.012-2.736,0.937-3.996,2.685-3.989c0.575,0.003,1.011,0.166,1.4,0.444l0.009-1.978
			c0.005-1.127-0.384-1.612-1.165-1.616c-0.529-0.002-1.014,0.341-1.707,1.051l-0.846-1.084c0.854-0.848,1.73-1.372,2.65-1.368
			c1.563,0.007,2.504,0.608,2.493,2.908L125.617,149.959z M124.2,148.114l0.018-4.162c-0.412-0.255-0.664-0.417-1.354-0.42
			c-1.012-0.005-1.269,0.983-1.276,2.593c-0.006,1.449,0.241,2.715,1.115,2.719C123.162,148.845,123.761,148.572,124.2,148.114z"/>
		<path class="st0" d="M137.646,150.012l-1.426-0.007l0.04-9.014c0.006-1.449-0.313-1.956-1.05-1.959
			c-0.437-0.002-0.943,0.294-1.383,0.706l-0.045,10.256l-1.426-0.006l0.04-9.014c0.006-1.449-0.313-1.956-1.05-1.96
			c-0.437-0.002-0.943,0.295-1.383,0.707l-0.045,10.256l-1.426-0.006l0.053-12.072l1.426,0.006l-0.002,0.598
			c0.485-0.458,1.084-0.846,1.843-0.843c0.828,0.004,1.264,0.351,1.629,0.996c0.716-0.617,1.36-0.982,2.234-0.979
			c1.448,0.006,2.019,1.228,2.01,3.228L137.646,150.012z"/>
		<path class="st0" d="M143.96,142.359l-3.84-0.017l0.006-1.472l3.84,0.017L143.96,142.359z"/>
		<path class="st0" d="M151.262,150.071l-5.84-0.025c0.02-4.484,0.924-6.365,3.004-8.978c0.926-1.146,1.345-2.362,1.35-3.489
			c0.007-1.609-0.38-2.439-1.254-2.443c-0.828-0.004-1.152,0.593-1.575,2.592l-1.4-0.42c0.424-2.205,1.119-3.605,3.143-3.597
			c1.793,0.008,2.614,1.574,2.604,3.805c-0.007,1.587-0.727,3.147-1.975,4.775c-1.78,2.292-2.34,3.783-2.351,6.359l4.301,0.019
			L151.262,150.071z"/>
		<path class="st0" d="M158.942,150.105l-1.426-0.007l0.003-0.575c-0.508,0.481-1.084,0.824-1.774,0.821
			c-1.563-0.007-2.292-1.437-2.281-4.035c0.012-2.736,0.937-3.997,2.685-3.989c0.575,0.003,1.011,0.166,1.4,0.443l0.009-1.978
			c0.005-1.127-0.384-1.611-1.165-1.615c-0.529-0.002-1.014,0.341-1.707,1.051l-0.846-1.084c0.854-0.848,1.73-1.373,2.65-1.368
			c1.563,0.007,2.504,0.608,2.493,2.908L158.942,150.105z M157.525,148.258l0.018-4.162c-0.412-0.254-0.664-0.417-1.354-0.42
			c-1.012-0.004-1.269,0.984-1.276,2.594c-0.006,1.449,0.241,2.715,1.115,2.719C156.487,148.991,157.086,148.716,157.525,148.258z"
			/>
		<path class="st0" d="M170.971,150.157l-1.426-0.006l0.04-9.014c0.006-1.449-0.313-1.956-1.05-1.96
			c-0.437-0.002-0.943,0.295-1.383,0.707l-0.045,10.256l-1.426-0.006l0.04-9.014c0.006-1.449-0.313-1.957-1.05-1.96
			c-0.437-0.002-0.943,0.295-1.383,0.707l-0.045,10.256l-1.426-0.006l0.053-12.072l1.426,0.006l-0.002,0.598
			c0.485-0.458,1.084-0.846,1.843-0.843c0.828,0.004,1.264,0.351,1.629,0.995c0.716-0.616,1.36-0.981,2.234-0.979
			c1.448,0.007,2.019,1.228,2.01,3.228L170.971,150.157z"/>
		<path class="st1" d="M180.223,154.452l-1.402-0.006l0.099-22.65l1.402,0.006L180.223,154.452z"/>
		<path class="st0" d="M193.442,150.255l-5.841-0.025c0.02-4.484,0.925-6.365,3.005-8.979c0.926-1.146,1.345-2.362,1.35-3.489
			c0.007-1.609-0.38-2.439-1.254-2.443c-0.828-0.003-1.152,0.593-1.575,2.592l-1.401-0.42c0.424-2.205,1.12-3.605,3.144-3.597
			c1.793,0.008,2.614,1.575,2.604,3.806c-0.007,1.587-0.727,3.147-1.975,4.774c-1.78,2.292-2.34,3.784-2.351,6.36l4.301,0.019
			L193.442,150.255z"/>
		<path class="st0" d="M198.296,150.276l-1.448-0.006l0.06-13.521l-1.771-0.008l0.004-0.988c1.289-0.109,1.773-0.429,2.054-1.578
			l1.173,0.005L198.296,150.276z"/>
		<path class="st0" d="M206.755,135.55c-2.756,4.403-2.98,8.61-3.008,14.75l-1.495-0.007c0.025-5.68,0.507-10.76,2.938-14.681
			l-4.461-0.02l0.006-1.403l6.025,0.026L206.755,135.55z"/>
		<path class="st0" d="M209.662,149.567c-0.003,0.575-0.373,1.011-0.994,1.008c-0.575-0.003-0.986-0.441-0.983-1.017
			c0.002-0.598,0.417-1.033,0.992-1.03C209.298,148.531,209.664,148.969,209.662,149.567z"/>
		<path class="st0" d="M217.635,145.739c-0.013,2.989-1.147,4.87-3.103,4.861c-1.655-0.007-2.455-1.138-2.974-3.531l1.45-0.385
			c0.406,1.818,0.817,2.487,1.646,2.49c1.081,0.005,1.455-1.557,1.463-3.373c0.01-2.438-0.629-3.384-2.146-3.391l-0.345-0.001
			l0.006-1.426l0.528,0.002c1.288,0.006,1.844-0.889,1.854-3.119c0.007-1.494-0.541-2.439-1.323-2.443
			c-0.827-0.003-1.129,0.685-1.644,2.361l-1.4-0.419c0.538-1.93,1.164-3.376,3.119-3.367c1.84,0.008,2.774,1.76,2.766,3.829
			c-0.01,2.276-0.681,3.285-1.741,3.786C216.846,142.033,217.647,142.795,217.635,145.739z"/>
		<path class="st0" d="M225.919,139.566c-0.027,6.232-1.88,9.006-4.395,11.064l-0.823-1.199c1.984-1.395,3.283-3.826,3.662-6.652
			c-0.417,0.642-1.063,1.145-1.844,1.141c-2.001-0.008-2.865-2.196-2.854-4.933c0.012-2.713,1.103-4.963,3.195-4.953
			C224.885,134.042,225.934,136.071,225.919,139.566z M224.426,139.007c0.01-2.139-0.628-3.544-1.594-3.548
			c-1.012-0.005-1.662,1.441-1.671,3.487c-0.009,2.047,0.491,3.544,1.595,3.549C224.021,142.5,224.418,140.87,224.426,139.007z"/>
		<path class="st0" d="M233.988,145.626c-0.015,3.403-1.333,5.053-3.08,5.045c-1.656-0.007-2.959-1.737-2.944-5.049
			c0.009-2.161,0.635-3.262,1.535-4.017c-0.757-0.625-1.372-1.778-1.365-3.41c0.01-2.323,1.19-4.134,2.893-4.127
			c1.84,0.008,2.89,1.922,2.88,4.129c-0.007,1.633-0.633,2.711-1.418,3.374C233.405,142.312,233.997,143.488,233.988,145.626z
			 M232.494,145.642c0.008-1.908-0.561-3.36-1.526-3.364s-1.501,1.443-1.509,3.329c-0.01,2.161,0.559,3.635,1.524,3.639
			C231.927,149.25,232.484,147.827,232.494,145.642z M232.411,138.238c0.007-1.563-0.517-2.739-1.391-2.743
			c-0.851-0.004-1.385,1.098-1.392,2.685c-0.007,1.495,0.54,2.67,1.368,2.673C231.848,140.856,232.404,139.709,232.411,138.238z"/>
		<path class="st0" d="M238.043,149.691c-0.003,0.575-0.373,1.01-0.994,1.007c-0.575-0.002-0.986-0.44-0.983-1.016
			c0.002-0.598,0.417-1.033,0.992-1.031C237.679,148.654,238.045,149.093,238.043,149.691z"/>
		<path class="st0" d="M246.042,145.012c-0.015,3.266-0.761,5.722-3.175,5.711c-1.908-0.008-2.567-1.827-2.789-3.553l1.428-0.386
			c0.2,1.243,0.541,2.51,1.46,2.514c1.241,0.005,1.547-1.764,1.558-4.225c0.009-1.978-0.42-3.611-1.477-3.616
			c-0.806-0.004-1.245,0.523-1.64,1.487l-1.195-0.213l0.358-8.368l5.242,0.022l-0.006,1.472l-3.886-0.017l-0.274,4.92
			c0.323-0.413,0.877-0.731,1.682-0.729C245.144,140.04,246.057,141.701,246.042,145.012z"/>
		<path class="st0" d="M254.139,139.689c-0.027,6.232-1.88,9.006-4.395,11.064l-0.822-1.199c1.983-1.395,3.282-3.826,3.661-6.652
			c-0.417,0.642-1.063,1.145-1.844,1.141c-2.001-0.008-2.865-2.196-2.854-4.933c0.012-2.713,1.103-4.963,3.195-4.953
			C253.104,134.165,254.153,136.194,254.139,139.689z M252.646,139.13c0.01-2.139-0.628-3.544-1.594-3.548
			c-1.012-0.005-1.662,1.441-1.671,3.487c-0.009,2.047,0.491,3.544,1.595,3.549C252.24,142.623,252.638,140.993,252.646,139.13z"/>
		<path class="st0" d="M262.207,145.749c-0.015,3.403-1.333,5.053-3.08,5.045c-1.656-0.007-2.959-1.737-2.944-5.049
			c0.009-2.161,0.635-3.262,1.535-4.017c-0.757-0.625-1.372-1.778-1.365-3.41c0.01-2.323,1.19-4.134,2.893-4.127
			c1.84,0.008,2.89,1.922,2.88,4.129c-0.007,1.633-0.633,2.711-1.418,3.374C261.624,142.435,262.216,143.611,262.207,145.749z
			 M260.713,145.765c0.008-1.908-0.561-3.36-1.526-3.364s-1.501,1.443-1.509,3.328c-0.01,2.162,0.559,3.636,1.524,3.64
			C260.146,149.373,260.703,147.95,260.713,145.765z M260.63,138.361c0.007-1.563-0.517-2.739-1.391-2.743
			c-0.851-0.004-1.385,1.098-1.392,2.685c-0.007,1.495,0.54,2.67,1.368,2.673C260.066,140.979,260.623,139.832,260.63,138.361z"/>
		<path class="st0" d="M270.396,145.785c-0.015,3.403-1.333,5.053-3.08,5.046c-1.656-0.008-2.959-1.738-2.944-5.05
			c0.009-2.161,0.635-3.262,1.535-4.017c-0.757-0.624-1.372-1.777-1.365-3.409c0.01-2.323,1.19-4.135,2.893-4.127
			c1.84,0.008,2.89,1.922,2.88,4.129c-0.007,1.633-0.633,2.711-1.418,3.374C269.813,142.471,270.404,143.646,270.396,145.785z
			 M268.901,145.801c0.008-1.908-0.561-3.36-1.526-3.364c-0.966-0.005-1.501,1.442-1.509,3.328c-0.01,2.161,0.559,3.636,1.524,3.64
			C268.334,149.409,268.892,147.986,268.901,145.801z M268.818,138.396c0.007-1.563-0.517-2.738-1.391-2.742
			c-0.851-0.004-1.385,1.098-1.392,2.685c-0.007,1.495,0.54,2.669,1.368,2.673C268.255,141.015,268.812,139.868,268.818,138.396z"/>
	</g>
</g>
<g>
	<g>
		<path class="st1" d="M12.28,7.098c0,0-0.08-1.452-1.516-1.685c-1.439-0.233-0.31,1.465-0.31,1.465L12.28,7.098z"/>
		<path class="st1" d="M50.76,17.13c4.733,0,8.568-3.835,8.568-8.567C59.327,3.833,55.493,0,50.76,0
			c-4.726,0-8.563,3.833-8.563,8.563C42.196,13.295,46.033,17.13,50.76,17.13z"/>
		<path class="st1" d="M54.737,94.619c-0.028-0.032-0.06-0.061-0.096-0.09c-0.913-0.742-1.059-2.376-1.074-3.159
			c1.091-13.3,3.441-64.48,4.886-65.524c0.735-0.532,3.463-1.295,6.281-1.985c3.236-0.948,7.318-2.04,7.53-1.604
			c0.02,0.041,0.017,0.143-0.006,0.299l0.046-0.071c0,0-0.025,0.073-0.069,0.209c-0.411,2.242-3.73,12.279-6.166,18.453
			c-0.048,0.139-0.087,0.253-0.118,0.343c0.039-0.097,0.072-0.153,0.041,0.033c-0.049,0.305-0.098,0.783,0.683,0.664
			c5.321-8.104,15.401-23.801,15.236-26.166c-0.224-3.211-60.526,9.904-60.526,9.904l-0.626-0.337
			c-0.882-0.773-2.013-1.066-3.062-0.899L12.289,8.012l-1.543-0.205l5.109,17.783c-0.076,0.072-0.151,0.147-0.222,0.228
			c-1.297,1.473-1.099,3.764,0.43,5.111c0.468,0.41,1.006,0.684,1.564,0.828l18.714,65.136
			c-10.753,2.485-25.285,7.813-35.514,19.801c0,0,0.015,0.713,1.627-0.58c1.613-1.291,22.193-16.879,46.473-16.396l6.291,0.124
			c24.275,0.482,45.493,16.897,47.161,18.25c1.661,1.362,1.647,0.646,1.647,0.646C87.667,99.804,61.405,95.363,54.737,94.619z
			 M48.897,94.787c-0.485,0.058-1.059,0.126-1.71,0.209c-0.147,0.017-0.3,0.036-0.456,0.057c-0.326,0.044-0.667,0.088-1.026,0.137
			c-1.403,0.192-3.057,0.444-4.893,0.78L19.938,31.598c0.468-0.197,0.898-0.494,1.252-0.897l1.179-1.669
			c0,0,16.572-3.483,20.246-1.565c3.219,1.678,6.969,51.408,7.924,64.079C50.674,93.325,50.112,94.638,48.897,94.787z"/>
	</g>
	<g>
		<path class="st0" d="M98.799,78.052c0,11.096-4.486,14.009-12.041,15.268l-1.338-5.745c5.194-1.18,6.689-2.676,6.689-8.815V36.813
			h6.69V78.052z M99.665,25.48c0,2.282-1.968,4.407-4.171,4.407c-2.204,0-4.25-2.125-4.25-4.407c0-2.361,2.046-4.486,4.25-4.486
			C97.697,20.994,99.665,23.119,99.665,25.48z"/>
		<path class="st0" d="M125.95,78.13h-6.611v-2.046c-1.653,1.653-3.384,2.912-6.453,2.912c-5.273,0-7.083-3.226-7.083-11.805V36.813
			h6.611v30.3c0,3.541,0.551,5.352,2.676,5.352c1.574,0,2.912-0.551,4.25-1.81V36.813h6.611V78.13z"/>
		<path class="st0" d="M154.123,57.196c0,14.245-2.518,21.8-9.129,21.8c-2.125,0-4.014-1.102-5.509-2.676v13.221l-6.611,3.777
			V36.813h6.611v1.967c1.259-1.574,3.069-2.833,5.588-2.833C152.628,35.947,154.123,44.368,154.123,57.196z M147.433,57.59
			c0-9.602-0.63-15.189-4.014-15.189c-1.574,0-2.912,0.787-3.935,1.81v26.207c1.102,1.102,2.361,1.967,4.171,1.967
			C146.647,72.385,147.433,67.978,147.433,57.59z"/>
		<path class="st0" d="M168.21,25.48c0,2.282-1.968,4.407-4.171,4.407c-2.204,0-4.25-2.125-4.25-4.407
			c0-2.361,2.046-4.486,4.25-4.486C166.242,20.994,168.21,23.119,168.21,25.48z M167.344,78.13h-6.69V36.813h6.69V78.13z"/>
		<path class="st0" d="M188.435,70.89l-0.708,6.611c-1.495,0.944-2.99,1.495-5.352,1.495c-5.037,0-6.926-3.384-6.926-9.601V43.424
			h-3.226v-6.611h3.226V24.378l6.69-3.62v16.055h5.824v6.611h-5.824v25.184c0,2.518,0.787,3.699,2.283,3.699
			C185.996,72.306,187.019,71.834,188.435,70.89z"/>
		<path class="st0" d="M213.305,59.793H198.43c0.236,8.657,1.653,12.513,4.722,12.513c2.204,0,2.912-1.417,4.329-4.958l5.509,2.597
			c-1.967,5.43-4.328,9.05-10.152,9.05c-8.342,0-10.703-9.523-10.703-21.249c0-13.93,3.069-21.8,10.861-21.8
			c6.925,0,10.309,7.949,10.309,21.878V59.793z M206.851,53.733c-0.157-6.453-1.417-11.49-4.171-11.49
			c-2.676,0-3.856,3.777-4.171,11.49H206.851z"/>
		<path class="st0" d="M234.946,36.97l-1.338,7.477c-1.102-1.023-2.282-1.574-4.25-1.574c-1.574,0-2.755,0.708-3.699,1.81V78.13
			h-6.611V36.813h6.611v2.046c1.495-1.732,3.305-2.912,5.588-2.912C233.294,35.947,234.238,36.341,234.946,36.97z"/>
		<path class="st0" d="M249.19,23.04l-4.407,15.189h-4.486l0.944-15.189H249.19z"/>
		<path class="st0" d="M270.989,68.371c0,6.453-4.328,10.624-10.31,10.624c-5.666,0-8.421-4.328-9.68-9.995l5.902-2.361
			c0.866,3.542,2.046,6.06,4.171,6.06c2.125,0,3.699-1.653,3.699-3.935c0-3.463-1.023-5.273-4.643-8.264
			c-6.453-5.194-8.736-8.736-8.736-14.087c0-6.06,3.62-10.467,9.601-10.467c5.352,0,8.027,3.699,9.444,8.972l-5.981,2.361
			c-0.708-2.833-1.889-5.037-3.778-5.037c-1.81,0-3.069,1.495-3.069,3.777c0,2.991,1.023,4.486,4.722,7.477
			C269.179,59.085,270.989,62.627,270.989,68.371z"/>
	</g>
	<g>
		<path class="st1" d="M139.932,106.338c0,4.89-0.838,7.684-3.269,7.684c-0.811,0-1.453-0.447-1.984-0.95v4.973l-1.731,1.063V99.046
			h1.731v0.755c0.531-0.587,1.286-1.063,2.096-1.063C139.234,98.738,139.932,101.672,139.932,106.338z M138.173,106.393
			c0-4.162-0.447-6.007-1.732-6.007c-0.615,0-1.229,0.363-1.761,0.866v10.226c0.643,0.587,1.202,0.895,1.872,0.895
			C137.865,112.373,138.173,109.803,138.173,106.393z"/>
		<path class="st1" d="M144.569,94.855c0,0.67-0.503,1.313-1.146,1.313s-1.201-0.643-1.201-1.313c0-0.727,0.559-1.342,1.201-1.342
			S144.569,94.129,144.569,94.855z M144.234,113.714h-1.732V99.046h1.732V113.714z"/>
		<path class="st1" d="M152.727,113.714h-6.23v-1.369l4.442-11.734h-4.052v-1.564h5.84v1.369l-4.442,11.734h4.442V113.714z"/>
		<path class="st1" d="M160.578,113.714h-6.23v-1.369l4.442-11.734h-4.052v-1.564h5.84v1.369l-4.442,11.734h4.442V113.714z"/>
		<path class="st1" d="M169.265,106.98h-5.28c0.056,3.213,0.559,5.337,1.844,5.337c0.922,0,1.313-0.587,2.096-1.9l1.201,0.95
			c-0.782,1.48-1.677,2.654-3.325,2.654c-2.402,0-3.52-2.794-3.52-7.544c0-5.029,1.285-7.739,3.576-7.739
			c2.234,0,3.408,2.71,3.408,7.852V106.98z M167.533,105.332c-0.084-2.821-0.614-4.889-1.732-4.889c-0.949,0-1.676,1.48-1.788,4.889
			H167.533z"/>
		<path class="st1" d="M176.891,99.018l-0.53,1.816c-0.476-0.251-0.811-0.335-1.341-0.335c-0.643,0-1.174,0.335-1.565,0.782v12.433
			h-1.731V99.046h1.731v0.727c0.531-0.587,1.229-1.034,2.068-1.034C176.193,98.738,176.528,98.851,176.891,99.018z"/>
		<path class="st1" d="M180.747,94.855c0,0.67-0.503,1.313-1.146,1.313s-1.201-0.643-1.201-1.313c0-0.727,0.559-1.342,1.201-1.342
			S180.747,94.129,180.747,94.855z M180.412,113.714h-1.732V99.046h1.732V113.714z"/>
		<path class="st1" d="M189.575,113.714h-1.731v-0.698c-0.615,0.587-1.313,1.006-2.151,1.006c-1.9,0-2.794-1.732-2.794-4.89
			c0-3.324,1.117-4.861,3.24-4.861c0.699,0,1.229,0.195,1.705,0.531v-2.403c0-1.369-0.476-1.955-1.425-1.955
			c-0.644,0-1.229,0.419-2.068,1.285l-1.033-1.313c1.033-1.034,2.096-1.677,3.213-1.677c1.899,0,3.045,0.727,3.045,3.521V113.714z
			 M187.844,111.478v-5.057c-0.503-0.308-0.811-0.503-1.648-0.503c-1.229,0-1.537,1.201-1.537,3.157c0,1.76,0.308,3.297,1.369,3.297
			C186.586,112.373,187.312,112.037,187.844,111.478z"/>
		<path class="st1" d="M204.912,113.714h-1.815l-0.727-1.928c-0.811,1.844-1.62,2.235-2.85,2.235c-1.9,0-2.85-1.9-2.85-4.918
			c0-2.263,0.838-4.386,2.291-6.286l-0.727-1.899c-0.587-1.564-0.866-2.515-0.866-3.548c0-1.929,1.173-3.521,3.102-3.521
			c1.983,0,2.793,1.536,3.296,3.521l-1.704,0.726c-0.419-1.704-0.782-2.514-1.62-2.514c-0.866,0-1.229,0.782-1.229,1.62
			c0,1.033,0.195,1.872,0.615,2.989l2.458,6.565c0.252-1.033,0.531-2.291,0.838-3.743l1.537,0.446
			c-0.531,2.431-1.006,4.331-1.425,5.812L204.912,113.714z M201.559,109.635l-1.899-4.973c-0.727,1.229-1.146,2.71-1.146,4.19
			c0,2.207,0.391,3.437,1.257,3.437C200.414,112.289,200.861,111.981,201.559,109.635z"/>
		<path class="st1" d="M218.992,106.338c0,4.89-0.838,7.684-3.269,7.684c-0.811,0-1.453-0.447-1.984-0.95v0.643h-1.731V94.408
			l1.731-1.062v6.454c0.531-0.587,1.285-1.063,2.096-1.063C218.294,98.738,218.992,101.672,218.992,106.338z M217.232,106.393
			c0-4.162-0.447-6.007-1.732-6.007c-0.615,0-1.229,0.363-1.761,0.866v10.226c0.643,0.587,1.202,0.895,1.872,0.895
			C216.925,112.373,217.232,109.803,217.232,106.393z"/>
		<path class="st1" d="M223.63,94.855c0,0.67-0.503,1.313-1.146,1.313s-1.201-0.643-1.201-1.313c0-0.727,0.559-1.342,1.201-1.342
			S223.63,94.129,223.63,94.855z M223.295,113.714h-1.732V99.046h1.732V113.714z"/>
		<path class="st1" d="M228.155,113.714h-1.732V94.408l1.732-1.062V113.714z"/>
		<path class="st1" d="M233.016,113.714h-1.732V94.408l1.732-1.062V113.714z"/>
		<path class="st1" d="M238.213,94.855c0,0.67-0.503,1.313-1.146,1.313s-1.201-0.643-1.201-1.313c0-0.727,0.559-1.342,1.201-1.342
			S238.213,94.129,238.213,94.855z M237.878,113.714h-1.732V99.046h1.732V113.714z"/>
		<path class="st1" d="M247.04,113.714h-1.731v-0.698c-0.615,0.587-1.313,1.006-2.151,1.006c-1.9,0-2.794-1.732-2.794-4.89
			c0-3.324,1.117-4.861,3.24-4.861c0.699,0,1.229,0.195,1.705,0.531v-2.403c0-1.369-0.476-1.955-1.425-1.955
			c-0.644,0-1.229,0.419-2.068,1.285l-1.033-1.313c1.033-1.034,2.096-1.677,3.213-1.677c1.899,0,3.045,0.727,3.045,3.521V113.714z
			 M245.308,111.478v-5.057c-0.503-0.308-0.811-0.503-1.648-0.503c-1.229,0-1.537,1.201-1.537,3.157c0,1.76,0.308,3.297,1.369,3.297
			C244.051,112.373,244.777,112.037,245.308,111.478z"/>
		<path class="st1" d="M254.973,99.018l-0.53,1.816c-0.476-0.251-0.811-0.335-1.341-0.335c-0.643,0-1.174,0.335-1.565,0.782v12.433
			h-1.731V99.046h1.731v0.727c0.531-0.587,1.229-1.034,2.068-1.034C254.275,98.738,254.61,98.851,254.973,99.018z"/>
		<path class="st1" d="M262.965,113.714h-1.732v-0.754c-0.53,0.586-1.285,1.062-2.096,1.062c-2.458,0-3.156-2.934-3.156-7.6
			c0-4.89,0.838-7.684,3.269-7.684c0.811,0,1.453,0.447,1.983,0.95v-5.28l1.732-1.062V113.714z M261.232,111.507v-10.226
			c-0.643-0.587-1.201-0.895-1.872-0.895c-1.313,0-1.62,2.57-1.62,5.979c0,4.163,0.447,6.007,1.732,6.007
			C260.087,112.373,260.702,112.01,261.232,111.507z"/>
		<path class="st1" d="M271.708,110.417c0,2.012-1.341,3.604-3.297,3.604c-1.731,0-2.737-1.285-3.24-3.018l1.48-0.866
			c0.475,1.509,0.978,2.207,1.788,2.207c1.034,0,1.564-0.782,1.564-1.76c0-1.258-0.224-2.04-2.067-3.632
			c-1.704-1.481-2.626-2.654-2.626-4.666c0-1.983,1.229-3.549,3.101-3.549c1.677,0,2.57,1.09,3.102,2.654l-1.564,0.866
			c-0.363-1.033-0.782-1.844-1.62-1.844c-0.811,0-1.313,0.671-1.313,1.704c0,1.09,0.308,1.816,2.039,3.297
			C270.898,106.98,271.708,108.378,271.708,110.417z"/>
	</g>
</g>
</svg>