<?xml version="1.0" encoding="UTF-8" standalone="no"?>
<!-- Copyright 2017 mathsisfun.com -->
<svg xmlns="http://www.w3.org/2000/svg" width="360" height="160.5" version="1.1" style="font-family:'Comic Sans MS'; font-size:11.9px; fill:#0065a4; stroke-width:1px;">
<defs/>
<g transform="translate(-132.996,-941.117)">
	<path transform="translate(132.996,941.117)" style="fill:none; stroke:#ef2929; stroke-width:1.31;" d="M 0.5 82.4 C 0.5 82.4 19.9 106.5 37.1 112.7 C 54.4 119 64 121.2 84.4 117.2 C 104.8 113.2 118.9 101.2 128.9 87.3 C 138.9 73.5 169.9 13.5 198.8 10.4 C 216.5 8.4 232.3 31.3 246.8 58.9 "/>
	<rect x="262.6" y="1012" width="15.9" height="9.2" style="fill:#19aeff; fill-opacity:0.17; stroke:#007ad2; stroke-width:0.67;"/>
	<rect x="328.5" y="952.8" width="15.9" height="68.5" style="fill:#19aeff; fill-opacity:0.17; stroke:#007ad2; stroke-width:0.69;"/>
	<rect x="394.4" y="-1051.2" width="15.9" height="29.9" transform="scale(1,-1)" style="fill:#19aeff; fill-opacity:0.17; stroke:#007ad2; stroke-width:0.69;"/>
	<rect x="344.9" y="962.1" width="15.9" height="59.1" style="fill:#19aeff; fill-opacity:0.17; stroke:#007ad2; stroke-width:0.69;"/>
	<rect x="361.4" y="984.1" width="15.9" height="37.2" style="fill:#19aeff; fill-opacity:0.17; stroke:#007ad2; stroke-width:0.69;"/>
	<rect x="312" y="955.6" width="15.9" height="65.6" style="fill:#19aeff; fill-opacity:0.17; stroke:#007ad2; stroke-width:0.69;"/>
	<rect x="295.5" y="968.4" width="15.9" height="52.8" style="fill:#19aeff; fill-opacity:0.17; stroke:#007ad2; stroke-width:0.69;"/>
	<rect x="279" y="988.6" width="15.9" height="32.7" style="fill:#19aeff; fill-opacity:0.17; stroke:#007ad2; stroke-width:0.7;"/>
	<rect x="377.9" y="1014.5" width="15.9" height="7" style="fill:#19aeff; fill-opacity:0.17; stroke:#007ad2; stroke-width:0.76;"/>
	<rect x="410.8" y="-1079.7" width="15.9" height="58.4" transform="scale(1,-1)" style="fill:#19aeff; fill-opacity:0.17; stroke:#007ad2; stroke-width:0.69;"/>
	<rect x="427.3" y="-1088.9" width="15.9" height="67.7" transform="scale(1,-1)" style="fill:#19aeff; fill-opacity:0.17; stroke:#007ad2; stroke-width:0.69;"/>
	<rect x="443.8" y="-1071.1" width="15.9" height="49.8" transform="scale(1,-1)" style="fill:#19aeff; fill-opacity:0.17; stroke:#007ad2; stroke-width:0.69;"/>
	<rect x="460.3" y="-1032.4" width="15.9" height="11.1" transform="scale(1,-1)" style="fill:#19aeff; fill-opacity:0.17; stroke:#007ad2; stroke-width:0.69;"/>
	<rect x="476.7" y="990.6" width="15.9" height="30.7" style="fill:#19aeff; fill-opacity:0.17; stroke:#007ad2; stroke-width:0.69;"/>
	<text x="264.1" y="1009.2" transform="scale(0.999821,1.00018)">12</text>
	<text x="329.5" y="949.9" transform="scale(0.999821,1.00018)">82</text>
	<text x="313.1" y="953.8" transform="scale(0.999821,1.00018)">78</text>
	<text x="295.8" y="965.1" transform="scale(0.999822,1.00018)">63</text>
	<text x="278.6" y="986" transform="scale(0.999822,1.00018)">39</text>
	<text x="345.5" y="959.9" transform="scale(0.999821,1.00018)">70</text>
	<text x="362.7" y="982.8" transform="scale(0.999821,1.00018)">44</text>
	<text x="382" y="1010.9" transform="scale(0.999821,1.00018)">9</text>
	<text x="390.8" y="1061.8" transform="scale(0.999822,1.00018)">-36</text>
	<text x="406" y="1092" transform="scale(0.999822,1.00018)">-69</text>
	<text x="425.7" y="1100.9" transform="scale(0.999821,1.00018)">-80</text>
	<text x="443.4" y="1080.6" transform="scale(0.999821,1.00018)">-59</text>
	<text x="462.2" y="1043.4" transform="scale(0.999822,1.00018)">-14</text>
	<text x="477.6" y="988.3" transform="scale(0.999822,1.00018)">42</text>
	<text x="160.8" y="1038.9" transform="scale(0.999822,1.00018)" style="font-family:Verdana; font-size:22.7px; fill:#ef2929;">Analog</text>
	<text x="393.6" y="984.4" transform="scale(0.999822,1.00018)" style="font-family:Verdana; font-size:22.7px;">Digital</text>
</g>
</svg>