<?xml version="1.0" encoding="utf-8"?>
<!-- Generator: Adobe Illustrator 23.0.2, SVG Export Plug-In . SVG Version: 6.00 Build 0)  -->
<svg version="1.1" id="Layer_1" xmlns="http://www.w3.org/2000/svg" xmlns:xlink="http://www.w3.org/1999/xlink" x="0px" y="0px"
	 viewBox="0 0 254.4 95" style="enable-background:new 0 0 254.4 95;" xml:space="preserve">
<style type="text/css">
	.st0{fill:#006F53;}
	.st1{fill:#FFF200;}
	.st2{fill:none;stroke:#FFFFFF;stroke-width:3.6417;}
	.st3{fill:#FFFFFF;stroke:#FFFFFF;stroke-width:1.0405;}
	.st4{fill:#FFFFFF;stroke:#D2232A;stroke-width:3.589600e-02;}
	.st5{fill:#D11242;}
	.st6{fill:#002D62;}
	.st7{fill:#FFFFFF;}
	.st8{fill:none;stroke:#FFFFFF;stroke-width:2.081;}
	.st9{fill-rule:evenodd;clip-rule:evenodd;fill:#006F53;}
</style>
<path class="st0" d="M241.9,14.7c0-3.5-2.8-6.2-6.2-6.2H18.2c-3.4,0-6.2,2.8-6.2,6.2V74c0,3.5,2.8,6.2,6.2,6.2h217.5
	c3.5,0,6.2-2.8,6.2-6.2V14.7z"/>
<path class="st1" d="M12.5,23.9c8.2,0.5,18.1,0.1,18.9,0c12.3-0.5,28.9-1.1,49.6-2.1c38.9-2,91.9-1.4,149,2.8
	c4.1,0.3,11.2,0.5,12.5,0c0.2-0.1-0.2-13.4-0.2-13.4s1-2.5-11.7-2.7s-210.5,0-210.5,0s-7.4,0.2-7.4,2.7
	C12.7,13.7,12.5,23.9,12.5,23.9z"/>
<path class="st2" d="M11.9,24c0,0,18.8,0.3,35.4-0.6c22.7-1.2,79.4-6.3,160.6,0.1c21.8,1.7,35.8,0.8,36,0.9"/>
<g>
	<rect x="118.2" y="25.1" class="st3" width="18.6" height="10.6"/>
	<rect x="118.4" y="25.3" class="st4" width="18.2" height="10.3"/>
	<rect x="124" y="25.3" class="st5" width="12.7" height="0.8"/>
	<rect x="124" y="26.8" class="st5" width="12.7" height="0.8"/>
	<rect x="124" y="28.3" class="st5" width="12.7" height="0.8"/>
	<rect x="124" y="30" class="st5" width="12.7" height="0.8"/>
	<rect x="118.4" y="31.6" class="st5" width="18.3" height="0.8"/>
	<rect x="118.4" y="33.2" class="st5" width="18.2" height="0.8"/>
	<rect x="118.4" y="34.8" class="st5" width="18.2" height="0.8"/>
	<rect x="118.4" y="25.3" class="st6" width="7.1" height="5.5"/>
	<polygon class="st7" points="119,25.6 119.1,25.7 119.2,25.7 119.1,25.8 119.1,25.9 119,25.9 118.9,25.9 118.9,25.8 118.8,25.7 
		118.9,25.7 	"/>
	<polygon class="st7" points="120.1,25.6 120.2,25.7 120.3,25.7 120.2,25.8 120.3,25.9 120.1,25.9 120,25.9 120,25.8 119.9,25.7 
		120.1,25.7 	"/>
	<polygon class="st7" points="121.4,25.6 121.4,25.7 121.6,25.7 121.5,25.8 121.5,25.9 121.4,25.9 121.2,25.9 121.3,25.8 
		121.2,25.7 121.3,25.7 	"/>
	<polygon class="st7" points="122.5,25.6 122.6,25.7 122.7,25.7 122.6,25.8 122.6,25.9 122.5,25.9 122.4,25.9 122.4,25.8 
		122.3,25.7 122.4,25.7 	"/>
	<polygon class="st7" points="123.6,25.6 123.7,25.7 123.8,25.7 123.7,25.8 123.7,25.9 123.6,25.9 123.5,25.9 123.5,25.8 
		123.4,25.7 123.6,25.7 	"/>
	<polygon class="st7" points="124.8,25.6 124.9,25.7 125,25.7 124.9,25.8 125,25.9 124.8,25.9 124.7,25.9 124.8,25.8 124.7,25.7 
		124.8,25.7 	"/>
	<polygon class="st7" points="119.6,26.2 119.6,26.3 119.8,26.3 119.7,26.4 119.7,26.5 119.6,26.5 119.4,26.5 119.5,26.4 
		119.4,26.3 119.5,26.3 	"/>
	<polygon class="st7" points="120.8,26.2 120.8,26.3 121,26.3 120.9,26.4 120.9,26.5 120.8,26.5 120.7,26.5 120.7,26.4 120.6,26.3 
		120.7,26.3 	"/>
	<polygon class="st7" points="121.9,26.2 122,26.3 122.1,26.3 122,26.4 122,26.5 121.9,26.5 121.8,26.5 121.8,26.4 121.7,26.3 
		121.9,26.3 	"/>
	<polygon class="st7" points="123,26.2 123.1,26.3 123.2,26.3 123.1,26.4 123.2,26.5 123,26.4 122.9,26.5 123,26.4 122.9,26.3 
		123,26.3 	"/>
	<polygon class="st7" points="124.3,26.2 124.3,26.3 124.5,26.3 124.4,26.4 124.4,26.5 124.3,26.4 124.2,26.5 124.2,26.4 
		124.1,26.3 124.2,26.3 	"/>
	<polygon class="st7" points="119,26.7 119.1,26.9 119.2,26.9 119.1,27 119.1,27.1 119,27 118.9,27.1 118.9,27 118.8,26.9 
		118.9,26.9 	"/>
	<polygon class="st7" points="120.1,26.7 120.2,26.8 120.3,26.9 120.2,27 120.3,27.1 120.1,27 120,27.1 120,27 120,26.9 120.1,26.8 
			"/>
	<polygon class="st7" points="121.4,26.7 121.4,26.8 121.6,26.9 121.5,27 121.5,27.1 121.4,27 121.3,27.1 121.3,27 121.2,26.9 
		121.3,26.8 	"/>
	<polygon class="st7" points="122.5,26.7 122.6,26.8 122.7,26.9 122.6,27 122.6,27.1 122.5,27 122.4,27.1 122.4,27 122.3,26.9 
		122.4,26.8 	"/>
	<polygon class="st7" points="123.6,26.7 123.7,26.8 123.8,26.9 123.7,26.9 123.8,27.1 123.6,27 123.5,27.1 123.5,26.9 123.4,26.9 
		123.6,26.8 	"/>
	<polygon class="st7" points="124.9,26.7 124.9,26.8 125,26.9 124.9,26.9 125,27.1 124.9,27 124.7,27.1 124.8,26.9 124.7,26.9 
		124.8,26.8 	"/>
	<polygon class="st7" points="119.6,27.3 119.6,27.4 119.8,27.4 119.7,27.5 119.7,27.6 119.6,27.6 119.5,27.6 119.5,27.5 
		119.4,27.4 119.5,27.4 	"/>
	<polygon class="st7" points="120.8,27.3 120.9,27.4 121,27.4 120.9,27.5 120.9,27.6 120.8,27.6 120.7,27.6 120.7,27.5 120.6,27.4 
		120.7,27.4 	"/>
	<polygon class="st7" points="121.9,27.3 122,27.4 122.1,27.4 122,27.5 122,27.6 121.9,27.6 121.8,27.6 121.8,27.5 121.7,27.4 
		121.9,27.4 	"/>
	<polygon class="st7" points="123.1,27.3 123.1,27.4 123.2,27.4 123.2,27.5 123.2,27.6 123.1,27.6 122.9,27.6 123,27.5 122.9,27.4 
		123,27.4 	"/>
	<polygon class="st7" points="124.3,27.3 124.3,27.4 124.5,27.4 124.4,27.5 124.4,27.6 124.3,27.6 124.2,27.6 124.2,27.5 
		124.1,27.4 124.2,27.4 	"/>
	<polygon class="st7" points="119.1,27.8 119.1,27.9 119.2,27.9 119.1,28 119.2,28.1 119.1,28.1 118.9,28.1 119,28 118.9,27.9 
		119,27.9 	"/>
	<polygon class="st7" points="120.2,27.8 120.3,27.9 120.4,27.9 120.3,28 120.3,28.1 120.2,28.1 120.1,28.1 120.1,28 120,27.9 
		120.1,27.9 	"/>
	<polygon class="st7" points="121.4,27.8 121.5,27.9 121.6,27.9 121.5,28 121.5,28.1 121.4,28.1 121.3,28.1 121.3,28 121.2,27.9 
		121.4,27.9 	"/>
	<polygon class="st7" points="122.5,27.8 122.6,27.9 122.7,27.9 122.6,28 122.7,28.1 122.5,28.1 122.4,28.1 122.4,28 122.3,27.9 
		122.5,27.9 	"/>
	<polygon class="st7" points="123.7,27.8 123.7,27.9 123.9,27.9 123.8,28 123.8,28.1 123.7,28.1 123.6,28.1 123.6,28 123.5,27.9 
		123.6,27.9 	"/>
	<polygon class="st7" points="124.9,27.8 125,27.9 125.1,27.9 125,28 125,28.1 124.9,28 124.8,28.1 124.8,28 124.7,27.9 124.8,27.9 
			"/>
	<polygon class="st7" points="119.6,28.4 119.7,28.5 119.8,28.5 119.7,28.6 119.7,28.7 119.6,28.6 119.5,28.7 119.5,28.6 
		119.4,28.5 119.6,28.5 	"/>
	<polygon class="st7" points="120.8,28.4 120.9,28.5 121,28.5 120.9,28.6 121,28.7 120.8,28.6 120.7,28.7 120.7,28.6 120.6,28.5 
		120.8,28.5 	"/>
	<polygon class="st7" points="122,28.4 122,28.5 122.2,28.5 122.1,28.6 122.1,28.7 122,28.6 121.8,28.7 121.9,28.6 121.8,28.5 
		121.9,28.5 	"/>
	<polygon class="st7" points="123.1,28.4 123.2,28.5 123.3,28.5 123.2,28.6 123.2,28.7 123.1,28.6 123,28.7 123,28.6 122.9,28.5 
		123,28.5 	"/>
	<polygon class="st7" points="124.3,28.4 124.4,28.5 124.5,28.5 124.4,28.6 124.5,28.7 124.3,28.6 124.2,28.7 124.2,28.6 
		124.1,28.5 124.3,28.5 	"/>
	<polygon class="st7" points="119.1,28.9 119.1,29 119.3,29.1 119.2,29.2 119.2,29.3 119.1,29.2 118.9,29.3 119,29.2 118.9,29.1 
		119,29 	"/>
	<polygon class="st7" points="120.2,28.9 120.3,29 120.4,29.1 120.3,29.1 120.3,29.3 120.2,29.2 120.1,29.3 120.1,29.1 120,29.1 
		120.1,29 	"/>
	<polygon class="st7" points="121.4,28.9 121.5,29 121.6,29.1 121.5,29.1 121.5,29.3 121.4,29.2 121.3,29.3 121.3,29.1 121.2,29.1 
		121.4,29 	"/>
	<polygon class="st7" points="122.5,28.9 122.6,29 122.7,29.1 122.6,29.1 122.7,29.3 122.5,29.2 122.4,29.3 122.4,29.1 122.4,29.1 
		122.5,29 	"/>
	<polygon class="st7" points="123.7,28.9 123.7,29 123.9,29.1 123.8,29.1 123.8,29.3 123.7,29.2 123.6,29.3 123.6,29.1 123.5,29.1 
		123.6,29 	"/>
	<polygon class="st7" points="124.9,28.9 125,29 125.1,29.1 125,29.1 125,29.3 124.9,29.2 124.8,29.3 124.8,29.1 124.7,29.1 
		124.8,29 	"/>
	<polygon class="st7" points="119.6,29.6 119.7,29.7 119.8,29.7 119.7,29.8 119.7,29.9 119.6,29.8 119.5,29.9 119.5,29.8 
		119.4,29.7 119.6,29.7 	"/>
	<polygon class="st7" points="120.8,29.5 120.9,29.7 121,29.7 120.9,29.8 121,29.9 120.8,29.8 120.7,29.9 120.7,29.8 120.6,29.7 
		120.8,29.7 	"/>
	<polygon class="st7" points="122,29.5 122,29.7 122.2,29.7 122.1,29.8 122.1,29.9 122,29.8 121.9,29.9 121.9,29.8 121.8,29.7 
		121.9,29.7 	"/>
	<polygon class="st7" points="123.1,29.5 123.2,29.7 123.3,29.7 123.2,29.8 123.2,29.9 123.1,29.8 123,29.9 123,29.8 122.9,29.7 
		123,29.7 	"/>
	<polygon class="st7" points="124.3,29.5 124.4,29.7 124.5,29.7 124.4,29.8 124.5,29.9 124.3,29.8 124.2,29.9 124.2,29.8 
		124.1,29.7 124.3,29.7 	"/>
	<polygon class="st7" points="119.1,30.2 119.1,30.3 119.2,30.3 119.1,30.4 119.2,30.5 119.1,30.5 118.9,30.5 119,30.4 118.9,30.3 
		119,30.3 	"/>
	<polygon class="st7" points="120.2,30.2 120.2,30.3 120.4,30.3 120.3,30.4 120.3,30.5 120.2,30.5 120.1,30.5 120.1,30.4 120,30.3 
		120.1,30.3 	"/>
	<polygon class="st7" points="121.4,30.2 121.5,30.3 121.6,30.3 121.5,30.4 121.5,30.5 121.4,30.5 121.3,30.5 121.3,30.4 
		121.2,30.3 121.4,30.3 	"/>
	<polygon class="st7" points="122.5,30.2 122.6,30.3 122.7,30.3 122.6,30.4 122.7,30.5 122.5,30.5 122.4,30.5 122.4,30.4 
		122.3,30.3 122.5,30.3 	"/>
	<polygon class="st7" points="123.7,30.2 123.7,30.3 123.9,30.3 123.8,30.4 123.8,30.5 123.7,30.5 123.6,30.5 123.6,30.4 
		123.5,30.3 123.6,30.3 	"/>
	<polygon class="st7" points="124.9,30.2 125,30.3 125.1,30.3 125,30.4 125,30.5 124.9,30.5 124.8,30.5 124.8,30.4 124.7,30.3 
		124.8,30.3 	"/>
</g>
<g>
	<path class="st7" d="M65.2,49.7c-0.7,0-0.7,0-0.9,0.7l-1.1,3.1c-0.5,1.5-0.4,1.6,0.6,1.7l0.8,0.1c0.2,0.2,0.2,0.6-0.1,0.7
		c-0.8,0-1.7,0-2.8,0c-0.9,0-1.7,0-2.6,0.1c-0.2-0.1-0.2-0.5,0-0.7l0.8-0.1c0.8-0.1,1.1-0.3,1.5-1.2c0.3-0.7,0.7-1.7,1.3-3.1
		l3.6-9.1c0.3-0.8,0.6-1.4,0.5-1.9c0.9-0.2,1.8-1.2,1.9-1.2c0.2,0,0.3,0.1,0.5,0.2c0.4,1.2,0.8,2.4,1.2,3.5l3.8,10.8
		c0.6,1.7,0.7,1.9,2.1,2.1l0.4,0.1c0.2,0.2,0.2,0.6,0,0.7C75.5,56,74.5,56,73.1,56c-1.1,0-2.3,0-3.2,0c-0.2-0.1-0.2-0.6-0.1-0.7
		l0.6-0.1c1-0.1,1-0.3,0.7-1.4l-1.2-3.5c-0.3-0.7-0.3-0.7-1.1-0.7h-3.6V49.7z M68.4,48.5c0.7,0,0.9-0.1,0.6-0.7l-1.1-3.1
		c-0.5-1.4-0.6-1.8-0.7-2l0,0c-0.1,0.2-0.3,0.8-0.8,2l-1.1,3c-0.3,0.7-0.2,0.7,0.4,0.7L68.4,48.5L68.4,48.5z"/>
	<path class="st7" d="M99.7,55.3c0.3,0.1,0.2,0.6-0.1,0.7c-1.1,0-2.1,0-3.2,0c-1.2,0-2.4,0-3.6,0.1c-0.2-0.1-0.3-0.6-0.1-0.7
		l0.7-0.1c1.1-0.2,1.1-0.4,1.1-2.1v-8.1v-2.4l0,0c-0.7,1.4-1.1,2.2-1.6,3.2l-2.3,4.5c-0.9,1.8-2.2,4.7-2.7,5.9
		c-0.1,0.1-0.5,0.1-0.7,0c-0.4-1.4-1.6-3.9-2.2-5.2L82.8,46c-0.5-1.1-1.2-2.7-1.5-3.5h-0.1c-0.1,1.3-0.1,3.3-0.2,4.3
		c0,1.6-0.1,3.8-0.1,6c0,1.7,0,2.1,1.2,2.3l0.9,0.2c0.2,0.2,0.2,0.6,0,0.7c-1,0-1.9,0-2.8,0c-0.8,0-1.8,0-2.8,0.1
		c-0.2-0.1-0.2-0.6-0.1-0.7l0.5-0.1c1.3-0.2,1.5-0.5,1.6-2.1c0.2-1.6,0.3-3.3,0.4-6c0.1-1.7,0.3-3.9,0.3-5.4c0-1.2-0.4-1.7-1.4-1.9
		l-0.9-0.2c-0.2-0.2-0.1-0.7,0.1-0.7c0.8,0.1,1.5,0.1,2.5,0.1c0.9,0,1.9,0,2.8-0.1c0.1,1.5,0.8,2.9,1.5,4.3l2.9,5.9
		c0.2,0.4,0.9,1.7,1.2,2.3c0.4-0.7,0.8-1.5,1.4-2.7l2.5-4.9c0.9-1.7,1.7-3.2,2.1-4.9c0.7,0.1,1.6,0.1,2.2,0.1c1.1,0,2,0,2.8-0.1
		c0.3,0.1,0.3,0.6,0.1,0.7L99,39.8c-1.2,0.2-1.4,0.6-1.4,1.9c0,3.8,0.1,7.6,0.2,11.4c0.1,1.7,0.4,1.9,1.2,2L99.7,55.3z"/>
	<path class="st7" d="M104.2,42.7c0-2.7-0.2-2.8-1.5-3l-0.4-0.1c-0.2-0.2-0.2-0.6,0.1-0.7c1,0.1,2.3,0.1,3.4,0.1h5.1
		c1.7,0,3.2,0,3.6-0.1c0.1,0.4,0.3,2.5,0.4,3.6c-0.1,0.2-0.6,0.3-0.8,0.1c-0.4-1.5-0.8-2.1-1.7-2.3c-0.6-0.2-1.4-0.2-2.1-0.2h-1.8
		c-1.1,0-1.1,0.1-1.1,1.5v4.3c0,0.7,0,0.7,0.6,0.7h1.3c2.3,0,2.8,0,2.9-1.1l0.2-0.9c0.2-0.2,0.7-0.2,0.8,0c0,0.7-0.1,1.6-0.1,2.6
		s0.1,1.9,0.1,2.7c-0.1,0.2-0.6,0.2-0.8,0l-0.2-1c-0.2-1.1-0.6-1.1-2.9-1.1H108c-0.6,0-0.6,0.1-0.6,0.7v3.3c0,1.3,0.1,2.2,0.5,2.7
		c0.3,0.4,0.8,0.6,3,0.6c3.4,0,4-0.7,4.9-2.8c0.2-0.2,0.7-0.1,0.8,0.2c-0.2,1.1-0.7,3-1.1,3.7c-1.2-0.1-3.4-0.1-6.6-0.1h-3
		c-1.2,0-2.8,0-4,0.1c-0.2-0.1-0.2-0.6-0.1-0.7l1-0.1c1.2-0.1,1.5-0.2,1.5-2.9v-9.8H104.2z"/>
	<path class="st7" d="M119.7,42.9c0-2.5,0-2.8-1.3-2.9l-0.7-0.1c-0.2-0.2-0.2-0.6,0-0.7c1.7-0.2,3.9-0.2,6.1-0.2
		c2.1,0,3.9,0.3,5,0.9c1.4,0.7,2.3,1.9,2.3,3.7c0,2.4-1.9,3.5-3.2,4.1c-0.2,0.1-0.1,0.3,0,0.4c2.1,3.5,3.4,5.7,4.7,6.7
		c0.7,0.6,1.5,0.8,1.8,0.8c0.1,0.1,0.1,0.4,0.1,0.5c-0.3,0.1-0.8,0.1-1.7,0.1c-2.6,0-3.9-1-5.5-3.4c-0.7-1.1-1.5-2.5-2.1-3.5
		c-0.5-0.8-0.8-0.9-1.6-0.9c-0.8,0-0.8,0-0.8,0.6v3.3c0,2.7,0.2,2.8,1.5,2.9l0.6,0.1c0.2,0.2,0.2,0.6-0.1,0.7
		c-1.2-0.1-2.4-0.1-3.5-0.1c-1.2,0-2.4,0-3.6,0.1c-0.2-0.1-0.3-0.6-0.1-0.7l0.6-0.1c1.2-0.2,1.5-0.2,1.5-2.9
		C119.7,52.3,119.7,42.9,119.7,42.9z M122.8,46.6c0,0.8,0,0.9,1.3,0.9c2.6,0,3.8-1.2,3.8-3.7c0-2-1.4-3.8-3.7-3.8
		c-1.4,0-1.4,0.1-1.4,1.3C122.8,41.3,122.8,46.6,122.8,46.6z"/>
	<path class="st7" d="M140.3,52.3c0,2.7,0.2,2.8,1.5,2.9l0.6,0.1c0.2,0.2,0.2,0.6-0.1,0.7c-1.2-0.1-2.4-0.1-3.5-0.1
		c-1.2,0-2.4,0-3.6,0.1c-0.2-0.1-0.2-0.6-0.1-0.7l0.6-0.1c1.2-0.2,1.5-0.2,1.5-2.9v-9.6c0-2.7-0.2-2.8-1.5-3l-0.6-0.1
		c-0.2-0.2-0.2-0.6,0.1-0.7c1.2,0.1,2.4,0.1,3.6,0.1c1.2,0,2.4,0,3.5-0.1c0.2,0.1,0.2,0.6,0.1,0.7l-0.6,0.1c-1.2,0.2-1.5,0.2-1.5,3
		V52.3z"/>
	<path class="st7" d="M161.1,43.3c-0.2,0.2-0.7,0.2-0.9,0c-0.4-1.6-1.6-3.7-5.1-3.7c-3.4,0-6.8,2.3-6.8,7.6c0,5.5,3.5,8.1,6.9,8.1
		c3.3,0,4.8-2.2,5.5-3.8c0.2-0.2,0.7-0.1,0.8,0.1c-0.2,1.7-0.9,3.4-1.3,3.9c-0.3,0.1-0.6,0.2-0.9,0.2c-0.6,0.2-2.4,0.6-4.1,0.6
		c-2.6,0-4.9-0.5-6.8-1.7c-2.2-1.4-3.8-3.7-3.8-7.1c0-3,1.4-5.3,3.3-6.8c2-1.4,4.6-2.2,7.3-2.2c1.5,0,3.3,0.3,4.6,0.6
		c0.3,0.1,0.5,0.1,0.7,0.2C160.8,39.9,160.9,41.4,161.1,43.3z"/>
	<path class="st7" d="M167.7,49.7c-0.7,0-0.7,0-0.9,0.7l-1.1,3.1c-0.5,1.5-0.4,1.6,0.6,1.7l0.8,0.1c0.2,0.2,0.2,0.6,0,0.7
		c-0.8-0.1-1.7-0.1-2.8-0.1c-0.9,0-1.7,0-2.6,0.1c-0.2-0.1-0.2-0.5,0-0.7l0.8-0.1c0.8-0.1,1.1-0.3,1.5-1.2c0.3-0.7,0.7-1.7,1.3-3.1
		l3.6-9.1c0.3-0.8,0.6-1.4,0.5-1.9c0.9-0.2,1.8-1.2,1.9-1.2c0.2,0,0.3,0.1,0.5,0.2c0.4,1.2,0.8,2.4,1.2,3.5l3.8,10.8
		c0.6,1.7,0.7,1.9,2.1,2.1l0.4,0.1c0.2,0.2,0.2,0.6,0,0.7C178,56,177,56,175.6,56c-1.1,0-2.3,0.1-3.2,0.1c-0.2-0.1-0.2-0.6-0.1-0.7
		l0.6-0.1c1-0.1,1-0.3,0.7-1.4l-1.2-3.5c-0.3-0.7-0.3-0.7-1.1-0.7C171.3,49.7,167.7,49.7,167.7,49.7z M170.9,48.5
		c0.7,0,0.8-0.1,0.6-0.7l-1.1-3.1c-0.4-1.4-0.6-1.8-0.7-2h-0.1c-0.1,0.2-0.3,0.8-0.8,2l-1.1,3c-0.3,0.7-0.2,0.7,0.4,0.7L170.9,48.5
		L170.9,48.5z"/>
	<path class="st7" d="M182.8,40.6c0,0.2,0,0.5-0.1,1.2l-0.8,4c-0.2,0.2-0.5,0.2-0.8,0l-0.8-4c-0.1-0.7-0.2-1-0.2-1.2
		c0-0.5,0.5-0.7,1.3-0.7C182.4,39.9,182.8,40.1,182.8,40.6z"/>
	<path class="st7" d="M187.4,55.3c-0.5-0.5-0.8-2.3-0.8-3.9c0.2-0.3,0.6-0.3,0.8-0.1c0.5,1.3,1.9,4.1,4.5,4.1c2,0,3.2-1.2,3.2-2.7
		s-0.7-2.6-2.7-3.7l-1.1-0.6c-2-1.1-3.7-2.6-3.7-5c0-2.5,2-4.7,5.8-4.7c1.4,0,2.4,0.3,3.6,0.5c0.3,0.6,0.6,2.3,0.6,3.5
		c-0.1,0.2-0.6,0.3-0.8,0.1c-0.4-1.3-1.3-3.1-3.6-3.1c-2.1,0-3,1.3-3,2.7c0,1.1,0.8,2.2,2.5,3.1l1.6,0.8c1.7,0.9,3.6,2.5,3.6,5.1
		c0,2.9-2.3,5-6.2,5C189.4,56.4,188,55.6,187.4,55.3z"/>
</g>
<path class="st8" d="M243.1,14.7c0-3.5-2.8-6.2-6.3-6.2H18.1c-3.5,0-6.3,2.8-6.3,6.2V74c0,3.5,2.8,6.2,6.3,6.2h218.8
	c3.5,0,6.3-2.8,6.3-6.2V14.7H243.1z"/>
<g>
	<path class="st7" d="M84,62.9c0-2,0-2.2-1-2.3l-0.5-0.1c-0.1-0.1-0.1-0.5,0-0.6c0.9-0.1,2.4-0.2,4.6-0.2c1.7,0,3,0.2,3.9,0.7
		c0.9,0.6,1.4,1.4,1.4,2.7c0,1.2-0.9,2.1-2.3,2.6c-0.1,0-0.1,0.1-0.1,0.1s0,0.1,0.2,0.1c1.5,0.2,3.2,1.3,3.2,3.6c0,1-0.3,2-1.2,2.7
		c-0.9,0.8-2.3,1.1-4.6,1.1c-0.9,0-1.7-0.1-2.5-0.1c-0.9,0-1.8,0-2.7,0.1c-0.2-0.1-0.2-0.4,0-0.6l0.4-0.1c0.9-0.1,1.1-0.2,1.1-2.4
		L84,62.9L84,62.9z M86.4,65.1c0,0.5,0.1,0.6,0.9,0.6c1.9,0,2.8-0.8,2.8-2.6c0-1.8-1.3-2.5-2.6-2.5c-1,0-1.1,0-1.1,0.9
		C86.4,61.5,86.4,65.1,86.4,65.1z M86.4,70c0,1.9,0.2,2.6,2,2.6c1.4,0,2.6-0.9,2.6-2.8c0-2.1-1.4-3.4-3.6-3.4
		c-0.9,0-0.9,0.1-0.9,0.5L86.4,70L86.4,70z"/>
	<path class="st7" d="M96.6,62.8c0-2.2-0.2-2.2-1.1-2.4h-0.3c-0.1-0.1-0.1-0.5,0-0.6c0.8,0,1.7,0.1,2.6,0.1h3.8c1.3,0,2.5,0,2.7-0.1
		c0.1,0.4,0.2,2,0.3,2.9c-0.1,0.2-0.5,0.2-0.6,0.1c-0.3-1.2-0.6-1.7-1.3-1.9c-0.5-0.1-1.1-0.2-1.6-0.2h-1.3c-0.9,0-0.9,0-0.9,1.2
		v3.5c0,0.5,0,0.6,0.5,0.6h1c1.8,0,2.1,0,2.2-0.9l0.1-0.7c0.2-0.2,0.5-0.2,0.6,0c0,0.6-0.1,1.3-0.1,2.1c0,0.8,0,1.5,0.1,2.2
		c-0.1,0.1-0.5,0.1-0.6,0l-0.1-0.8c-0.1-0.9-0.5-0.9-2.2-0.9h-1c-0.5,0-0.5,0-0.5,0.6v2.6c0,1,0,1.8,0.3,2.1
		c0.2,0.3,0.6,0.5,2.3,0.5c2.6,0,3-0.6,3.7-2.2c0.2-0.1,0.5-0.1,0.6,0.1c-0.1,0.9-0.6,2.4-0.8,3c-0.9,0-2.6-0.1-5-0.1h-2.3
		c-0.9,0-2.1,0-3,0.1c-0.2-0.1-0.2-0.4,0-0.6l0.7-0.1c0.9-0.1,1.1-0.2,1.1-2.3v-7.9H96.6z"/>
	<path class="st7" d="M107.2,72.8c-0.4-0.4-0.6-1.8-0.6-3.1c0.1-0.2,0.5-0.2,0.6-0.1c0.4,1,1.4,3.2,3.4,3.2c1.5,0,2.4-0.9,2.4-2.2
		c0-1.2-0.5-2.1-2.1-3l-0.9-0.5c-1.5-0.9-2.8-2.1-2.8-4c0-2,1.5-3.8,4.4-3.8c1,0,1.8,0.2,2.8,0.4c0.2,0.5,0.4,1.8,0.4,2.8
		c-0.1,0.2-0.5,0.2-0.6,0.1c-0.3-1.1-1-2.4-2.7-2.4c-1.6,0-2.3,1.1-2.3,2.2c0,0.9,0.6,1.8,1.9,2.5l1.2,0.7c1.3,0.7,2.8,2,2.8,4
		c0,2.3-1.7,4-4.7,4C108.7,73.7,107.6,73.1,107.2,72.8z"/>
	<path class="st7" d="M121.8,61.5c0-0.9,0-0.9-0.5-0.9h-1.1c-1.9,0-2.4,0.2-3.1,1.9c-0.1,0.1-0.6,0.1-0.6-0.1
		c0.3-1.1,0.6-2.4,0.8-3.1c0-0.1,0.1-0.1,0.2-0.1s0.2,0,0.2,0.1c0.1,0.5,0.4,0.5,1.7,0.5h8.2c1,0,1.3-0.1,1.5-0.5
		c0.1,0,0.2-0.1,0.2-0.1c0.1,0,0.2,0,0.3,0.1c-0.2,0.8-0.4,2.6-0.3,3.3c-0.1,0.2-0.4,0.2-0.6,0.1c-0.3-1.6-0.6-2-2.8-2h-1.2
		c-0.5,0-0.5,0-0.5,0.9v8.9c0,2.2,0.2,2.2,1.1,2.3l0.7,0.1c0.1,0.2,0.1,0.5,0,0.6c-1.2,0-2.1-0.1-3-0.1s-1.8,0-3.1,0.1
		c-0.2-0.1-0.2-0.5,0-0.6l0.8-0.1c0.9-0.1,1.1-0.2,1.1-2.3C121.8,70.5,121.8,61.5,121.8,61.5z"/>
	<path class="st7" d="M139.5,70.4c0,2.2,0.2,2.2,1.1,2.4l0.4,0.1c0.1,0.2,0.1,0.5,0,0.6c-0.9,0-1.8-0.1-2.7-0.1s-1.8,0-2.7,0.1
		c-0.2-0.1-0.2-0.4,0-0.6l0.4-0.1c0.9-0.1,1.1-0.2,1.1-2.4v-7.6c0-2.2-0.2-2.2-1.1-2.4l-0.4-0.1c-0.1-0.1-0.1-0.5,0-0.6
		c0.9,0,1.8,0.1,2.7,0.1s1.8,0,2.7-0.1c0.2,0.1,0.2,0.5,0,0.6l-0.4,0.1c-0.9,0.1-1.1,0.2-1.1,2.4V70.4z"/>
	<path class="st7" d="M155.4,69.9c0,0.6,0,3.1,0.1,3.6c-0.2,0.2-0.4,0.3-0.7,0.3c-0.3-0.4-0.9-1.1-2.4-2.8l-4.7-5.5
		c-1.3-1.5-2-2.3-2.3-2.6c-0.1,0-0.1,0.2-0.1,1.3v4c0,1.5,0,3.4,0.4,4c0.2,0.3,0.5,0.4,1,0.5l0.4,0.1c0.2,0.2,0.2,0.5,0,0.6
		c-0.7,0-1.5-0.1-2.3-0.1s-1.4,0-2.1,0.1c-0.2-0.1-0.2-0.4,0-0.6l0.4-0.1c0.4-0.1,0.7-0.2,0.9-0.5c0.3-0.6,0.3-2.4,0.3-4v-4.9
		c0-1.6,0-1.9-0.7-2.5c-0.2-0.2-0.8-0.3-1.1-0.4l-0.3-0.1c-0.1-0.1-0.1-0.5,0.1-0.6c0.8,0.1,1.9,0.1,2.4,0.1c0.4,0,0.9,0,1.4-0.1
		c0.3,0.9,2.5,3.5,3.2,4.3l2,2.2c0.8,0.9,2.7,3.1,2.9,3.2c0.1-0.1,0.1-0.2,0.1-0.5v-4c0-1.5,0-3.4-0.4-4c-0.2-0.3-0.5-0.4-1-0.5
		l-0.5-0.1c-0.2-0.1-0.2-0.5,0-0.6c0.8,0,1.5,0.1,2.3,0.1c0.9,0,1.4,0,2.1-0.1c0.2,0.1,0.2,0.5,0,0.6l-0.5,0.1
		c-0.4,0.1-0.7,0.1-0.9,0.5c-0.3,0.6-0.3,2.4-0.3,4v5H155.4z"/>
	<path class="st7" d="M171,69.9c0,0.6,0,3.1,0.1,3.6c-0.2,0.2-0.4,0.3-0.7,0.3c-0.3-0.4-0.9-1.1-2.4-2.8l-4.7-5.5
		c-1.3-1.5-1.9-2.3-2.3-2.6c-0.1,0-0.1,0.2-0.1,1.3v4c0,1.5,0,3.4,0.4,4c0.2,0.3,0.5,0.4,1,0.5l0.4,0.1c0.2,0.2,0.2,0.5,0,0.6
		c-0.7,0-1.5-0.1-2.3-0.1s-1.4,0-2.1,0.1c-0.2-0.1-0.2-0.4,0-0.6l0.4-0.1c0.4-0.1,0.7-0.2,0.9-0.5c0.3-0.6,0.3-2.4,0.3-4v-4.9
		c0-1.6,0-1.9-0.7-2.5c-0.2-0.2-0.8-0.3-1.1-0.4l-0.3-0.1c-0.1-0.1-0.1-0.5,0.1-0.6c0.8,0.1,1.9,0.1,2.4,0.1c0.4,0,0.9,0,1.4-0.1
		c0.3,0.9,2.5,3.5,3.2,4.3l2,2.2c0.8,0.9,2.7,3.1,2.9,3.2c0.1-0.1,0.1-0.2,0.1-0.5v-4c0-1.5,0-3.4-0.4-4c-0.2-0.3-0.5-0.4-1-0.5
		l-0.5-0.1c-0.2-0.1-0.2-0.5,0-0.6c0.8,0,1.5,0.1,2.3,0.1c0.9,0,1.4,0,2.1-0.1c0.2,0.1,0.2,0.5,0,0.6l-0.5,0.1
		c-0.4,0.1-0.7,0.1-0.9,0.5c-0.3,0.6-0.3,2.4-0.3,4v5H171z"/>
</g>
<path class="st9" d="M239.1,80.6c1.5,0,2.8,1.2,2.8,2.8c0,1.5-1.3,2.8-2.8,2.8s-2.8-1.2-2.8-2.8C236.3,81.9,237.6,80.6,239.1,80.6z
	 M239.1,81.3c-1.2,0-2.2,0.9-2.2,2.2c0,1.2,1,2.2,2.2,2.2s2.2-1,2.2-2.2C241.2,82.2,240.3,81.3,239.1,81.3z M238.5,83.7v1.2h-0.7v-3
	h1.5c0.5-0.1,0.9,0.4,0.9,0.9c-0.1,0.3-0.2,0.6-0.6,0.7c0.2,0.1,0.4,0.3,0.4,0.5l0.1,0.8c0,0.1,0.1,0.1,0.1,0.2h-0.6
	c-0.1-0.1-0.1-0.3-0.1-0.5c0-0.1,0-0.2-0.1-0.3c0-0.2-0.2-0.4-0.5-0.4L238.5,83.7L238.5,83.7z M238.5,83.2h0.6
	c0.3,0.1,0.5-0.1,0.5-0.4c0-0.2-0.2-0.4-0.4-0.4h-0.7L238.5,83.2L238.5,83.2z"/>
</svg>
