<?xml version="1.0" encoding="utf-8"?>
<!-- Generator: Adobe Illustrator 15.0.0, SVG Export Plug-In . SVG Version: 6.00 Build 0)  -->
<!DOCTYPE svg PUBLIC "-//W3C//DTD SVG 1.1//EN" "http://www.w3.org/Graphics/SVG/1.1/DTD/svg11.dtd">
<svg version="1.1" id="Layer_1" xmlns="http://www.w3.org/2000/svg" xmlns:xlink="http://www.w3.org/1999/xlink" x="0px" y="0px"
	 width="792px" height="251.988px" viewBox="0 178.097 792 251.988" enable-background="new 0 178.097 792 251.988"
	 xml:space="preserve">
<g>
	<path fill="#FFFFFF" d="M181.802,402.228c-10.129,0-19.909-7.51-19.909-19.385c0-11.876,9.605-19.211,19.909-19.211
		c10.304,0,19.909,7.51,19.909,19.211C201.537,394.893,191.931,402.228,181.802,402.228z M181.802,371.49
		c-5.588,0-10.828,4.541-10.828,11.353c0,6.985,5.239,11.526,10.828,11.526c5.589,0,10.828-4.541,10.828-11.526
		C192.63,376.031,187.216,371.49,181.802,371.49z"/>
	<path fill="#FFFFFF" d="M255.151,402.228c-8.732,0-15.892-5.239-15.892-13.447v-24.275h8.907v23.577
		c0,3.842,2.794,6.287,7.16,6.287c4.191,0,7.16-2.62,7.16-6.287V364.68h8.732v24.275
		C271.219,396.988,264.058,402.228,255.151,402.228z"/>
	<path fill="#FFFFFF" d="M332.518,371.665v29.689h-8.907v-29.689h-11.177v-7.16h31.086v7.16H332.518L332.518,371.665z"/>
	<path fill="#FFFFFF" d="M390.149,401.529v-36.85h8.907v29.165H413.9v7.685H390.149z"/>
	<path fill="#FFFFFF" d="M461.578,401.529v-36.85h23.401v7.335h-14.495v7.335h12.051v7.51h-12.051v7.335h15.369v7.335H461.578z"/>
	<path fill="#FFFFFF" d="M549.248,371.665v29.689h-8.906v-29.689h-11.178v-7.16h31.086v7.16H549.248L549.248,371.665z"/>
	<path fill="#FFFFFF" d="M613.69,402.228c-4.54,0-8.557-1.223-11.177-3.144l-0.873-8.558c3.668,2.795,7.51,4.191,11.526,4.191
		c3.318,0,5.064-1.396,5.064-3.667s-1.223-3.318-5.763-4.891c-6.462-2.27-9.78-6.287-9.78-11.526
		c0-6.287,4.716-11.177,12.749-11.177c4.54,0,7.335,1.223,9.081,2.271l-0.698,7.51c-1.747-1.223-4.716-2.271-7.685-2.271
		c-3.144,0-4.715,1.397-4.715,3.144s1.222,2.794,5.588,4.191c5.938,1.921,10.304,6.112,10.304,11.876
		C627.312,397.513,622.772,402.228,613.69,402.228z"/>
</g>
<g>
	<g>
		<polygon points="491.791,292.029 491.791,324.687 449.179,324.687 449.179,197.722 499.999,242.954 499.999,209.598 
			542.786,209.598 542.786,337.436 		"/>
	</g>
	<g>
		<polygon points="351.903,325.036 351.903,282.772 345.267,282.772 345.267,244.701 351.903,244.701 351.903,209.947 
			423.331,209.947 423.331,244.701 428.92,244.701 428.92,282.772 394.516,282.772 394.516,286.964 426.301,286.964 
			426.301,325.036 		"/>
	</g>
	<g>
		<path d="M284.316,328.005c-15.193,0-26.895-3.842-37.897-12.399c-15.369-11.526-24.275-29.166-24.275-48.201
			c0-33.182,26.895-60.251,59.728-60.251c12.574,0,27.244,4.715,36.326,11.701l4.366,3.318l-24.45,35.103l-4.715-3.667
			c-3.144-2.445-6.985-3.842-11.002-3.842c-9.605,0-17.639,8.033-17.639,17.639c0,9.955,8.034,17.813,18.337,17.813
			c1.921,0,3.493-0.175,4.89-0.524v-22.878h42.612v52.218l-2.794,1.572C313.656,323.813,298.986,328.005,284.316,328.005z"/>
	</g>
	<g>
		<polygon points="131.156,324.861 131.156,282.598 124.52,282.598 124.52,244.352 131.156,244.352 131.156,209.772 
			202.584,209.772 202.584,244.352 208.348,244.352 208.348,282.598 173.943,282.598 173.943,286.615 205.728,286.615 
			205.728,324.861 		"/>
	</g>
	<g>
		<polygon points="39.12,324.861 39.12,209.772 81.732,209.772 81.732,286.79 112.818,286.79 112.818,324.861 		"/>
	</g>
	<g>
		<path d="M564.616,325.036V209.947h32.833c14.495,0,21.48,1.222,30.388,4.89c21.132,8.732,34.754,29.515,34.754,52.567
			s-13.622,43.66-34.754,52.567c-8.732,3.667-15.543,4.89-30.388,4.89h-32.833V325.036z M607.055,286.266
			c2.271-0.524,4.191-1.223,6.112-2.794c4.366-3.493,6.637-9.082,6.637-15.893c0-9.081-3.144-13.098-7.859-16.591
			c-0.523-0.349-1.746-1.048-4.89-1.747"/>
	</g>
	<g>
		<path d="M707.822,328.18c-14.146,0-28.466-5.764-40.517-16.416l-3.667-3.145l21.655-35.626l5.064,4.541
			c6.287,5.589,12.225,8.907,16.242,8.907c0.523,0,0.873-0.174,0.873-0.174c0-0.524,0-1.048-1.747-2.62l-6.811-5.065l-1.223-0.873
			c-7.51-5.588-11.352-8.732-14.845-13.273c-4.89-6.112-7.684-13.622-7.684-21.306c0-20.258,17.289-36.675,38.421-36.675
			c11.352,0,24.275,4.715,33.531,12.225l3.842,3.144l-17.988,31.261c12.749,10.129,18.163,20.433,18.163,33.356
			C751.483,310.366,732.797,328.18,707.822,328.18z"/>
	</g>
</g>
<g>
	<polygon fill="#FFFFFF" points="358.889,318.225 358.889,275.961 352.252,275.961 352.252,251.861 358.889,251.861 
		358.889,217.282 416.171,217.282 416.171,241.383 387.355,241.383 387.355,251.861 421.935,251.861 421.935,275.961 
		387.355,275.961 387.355,294.125 419.314,294.125 419.314,318.225 	"/>
	<polygon fill="#FFFFFF" points="484.98,277.009 484.98,318.225 456.339,318.225 456.339,213.964 507.334,259.371 507.334,217.282 
		535.976,217.282 535.976,322.416 	"/>
	<path fill="#FFFFFF" d="M707.822,321.718c-12.05,0-24.449-4.89-34.928-13.797l14.146-23.402c7.335,6.287,14.321,9.78,19.734,9.78
		c4.541,0,8.034-3.144,8.034-7.335c0-2.969-1.223-5.064-4.191-7.859c-1.223-1.048-1.747-1.572-4.716-3.667
		c-0.698-0.524-1.571-1.222-2.444-1.921c-0.35-0.349-0.874-0.699-1.223-0.873c-7.335-5.414-10.479-8.034-13.622-12.05
		c-3.843-4.715-6.112-11.002-6.112-16.94c0-16.242,14.146-29.514,31.436-29.514c9.256,0,20.258,3.842,28.292,10.129l-11.353,19.734
		c-4.365-3.493-8.731-5.588-12.225-5.588c-3.144,0-5.938,2.62-5.938,5.414c0,3.144,2.096,5.763,8.033,9.605
		c16.94,10.828,23.751,20.608,23.751,33.706C744.497,306.698,728.779,321.718,707.822,321.718z"/>
	<path fill="#FFFFFF" d="M284.491,321.193c-13.447,0-23.926-3.317-33.706-10.827c-13.622-10.304-21.481-25.672-21.481-42.613
		c0-29.34,23.577-53.266,52.742-53.266c10.653,0,22.878,3.842,30.912,9.605l-16.417,23.402c-4.191-2.969-9.082-4.366-14.321-4.366
		c-13.622,0-24.624,11.002-24.624,24.625c0,13.797,11.177,24.799,25.323,24.799c4.366,0,7.335-0.524,11.002-2.096l0.873-0.35V269.15
		h28.642v41.041C310.862,317.526,297.764,321.193,284.491,321.193z"/>
	<polygon fill="#FFFFFF" points="138.316,318.225 138.316,275.961 131.505,275.961 131.505,251.861 138.316,251.861 
		138.316,217.282 195.599,217.282 195.599,241.383 166.783,241.383 166.783,251.861 201.362,251.861 201.362,275.961 
		166.783,275.961 166.783,294.125 198.742,294.125 198.742,318.225 	"/>
	<polygon fill="#FFFFFF" points="46.28,318.225 46.28,217.282 74.747,217.282 74.747,294.125 105.833,294.125 105.833,318.225 	"/>
	<path fill="#FFFFFF" d="M571.428,318.225V217.282h25.847c13.447,0,19.734,1.048,27.594,4.366
		c18.512,7.685,30.388,25.847,30.388,46.105c0,20.084-11.876,38.247-30.388,46.106c-7.685,3.317-13.797,4.191-27.594,4.191h-25.847
		V318.225z M600.068,294.125h1.397c8.732-0.175,12.924-1.572,17.115-5.589c5.414-5.064,8.208-11.701,8.208-20.607
		c0-9.605-3.318-17.29-9.605-22.18c-3.842-2.969-7.685-4.017-15.718-4.366h-1.397V294.125z"/>
</g>
<g>
	<path fill="#231F20" d="M59.553,307.397v-80.161h2.096v77.89h34.404v2.096h-36.5V307.397z"/>
	<path fill="#231F20" d="M151.589,307.397v-42.438H141.46v-2.096h10.129v-34.579h34.055v2.096h-31.959v32.309h38.596v2.096h-38.596
		v40.167h35.278v2.096h-37.374V307.397z"/>
	<path fill="#231F20" d="M310.338,278.931v23.053c-8.558,4.366-17.115,6.287-26.022,6.287c-23.576,0-41.914-17.639-41.914-40.517
		c0-22.005,17.988-39.993,39.993-39.993c4.715,0,9.082,0.698,14.146,2.445l-1.397,2.096c-4.715-1.572-8.732-2.271-12.923-2.271
		c-20.433,0-37.548,17.29-37.548,37.897c0,21.655,17.464,38.421,39.644,38.421c8.208,0,16.067-1.921,24.101-5.764v-21.655H310.338z"
		/>
	<path fill="#231F20" d="M284.316,308.096c-23.402,0-41.739-17.813-41.739-40.342c0-22.005,17.813-39.818,39.818-39.818
		c4.715,0,9.082,0.699,13.797,2.445l-1.223,1.921c-4.715-1.747-8.732-2.445-12.749-2.445c-20.433,0-37.723,17.464-37.723,38.072
		c0,21.655,17.464,38.595,39.818,38.595c8.208,0,16.067-1.92,24.101-5.763l0.175-21.481h1.921v22.878
		C301.956,306,293.398,308.096,284.316,308.096z"/>
	<path fill="#231F20" d="M372.162,307.397v-42.438h-10.129v-2.096h10.129v-34.579h34.055v2.096h-31.785v32.309h38.596v2.096h-38.596
		v40.167h35.277v2.096h-37.547V307.397z"/>
	<path fill="#231F20" d="M522.877,293.077l-51.17-45.407v60.775h-2.096v-65.84l51.17,45.582v-60.95h2.096V293.077z"/>
	<path fill="#231F20" d="M727.558,230.031c-4.191-2.096-7.685-3.144-11.876-3.144c-9.955,0-16.591,6.287-16.591,16.067
		c0,7.335,3.144,11.701,15.193,21.307c12.924,10.129,16.067,14.67,16.067,22.529c0,12.574-10.479,22.354-23.576,22.354
		c-6.812,0-12.226-1.746-19.386-6.287l1.223-1.921c6.112,4.017,11.876,5.938,17.988,5.938c11.875,0,21.655-9.081,21.655-20.083
		c0-7.335-2.794-11.177-15.02-20.783c-12.923-10.304-16.416-15.193-16.416-23.052c0-10.653,7.859-18.337,19.036-18.337
		c4.191,0,7.685,0.698,12.923,3.144L727.558,230.031z"/>
	<path fill="#231F20" d="M623.646,234.048c-7.16-4.191-13.797-5.763-25.847-5.763h-13.273v79.113h13.273
		c13.272,0,20.433-1.921,28.117-6.986c10.653-7.51,16.591-19.036,16.591-32.483C642.507,253.433,635.695,241.033,623.646,234.048z
		 M622.598,299.713c-6.812,4.017-12.749,5.414-24.45,5.414h-11.352V230.38h11.526c12.574,0,19.036,1.746,26.371,6.811
		c10.129,6.985,15.718,17.988,15.718,30.562C640.411,281.201,633.774,292.902,622.598,299.713z"/>
</g>
</svg>
