<?xml version="1.0" encoding="utf-8"?>
<!-- Generator: Adobe Illustrator 22.0.0, SVG Export Plug-In . SVG Version: 6.00 Build 0)  -->
<svg version="1.1" id="Layer_1" xmlns="http://www.w3.org/2000/svg" xmlns:xlink="http://www.w3.org/1999/xlink" x="0px" y="0px"
	 viewBox="0 0 79.2 70.2" style="enable-background:new 0 0 79.2 70.2;" xml:space="preserve">
<style type="text/css">
	.st0{fill:#F4A925;}
	.st1{fill:#52463C;}
</style>
<g>
	<g>
		<path class="st0" d="M76.1,37.5c0,0.1,0.1,0.1,0.2,0.1c0.1,0,0.1,0,0.2,0c0,0,0.1,0,0.1,0c0,0,0.1,0,0.1-0.1c0,0,0.1-0.1,0.1-0.1
			c0,0,0-0.1,0-0.1c0-0.1,0-0.1-0.1-0.1c0,0-0.1-0.1-0.2-0.1c-0.1,0-0.1,0-0.2-0.1c-0.1,0-0.1-0.1-0.2-0.1c-0.1,0-0.1-0.1-0.2-0.2
			c0-0.1-0.1-0.1-0.1-0.3c0,0,0-0.1,0-0.2c0-0.1,0.1-0.1,0.1-0.1c0,0,0.1-0.1,0.2-0.1c0.1,0,0.2,0,0.3,0c0.1,0,0.2,0,0.3,0
			c0.1,0,0.2,0.1,0.2,0.2l-0.2,0.2c0,0-0.1-0.1-0.1-0.1c-0.1,0-0.1,0-0.2,0c-0.1,0-0.1,0-0.2,0c0,0-0.1,0-0.1,0.1c0,0,0,0.1-0.1,0.1
			c0,0,0,0.1,0,0.1c0,0.1,0,0.1,0.1,0.2c0,0,0.1,0.1,0.2,0.1c0.1,0,0.1,0,0.2,0.1c0.1,0,0.1,0,0.2,0.1c0.1,0,0.1,0.1,0.2,0.1
			c0,0.1,0.1,0.1,0.1,0.2c0,0.1,0,0.2,0,0.2c0,0.1-0.1,0.1-0.1,0.2c-0.1,0-0.1,0.1-0.2,0.1c-0.1,0-0.1,0-0.2,0c-0.1,0-0.2,0-0.3-0.1
			c-0.1,0-0.2-0.1-0.2-0.2L76.1,37.5z"/>
		<path class="st0" d="M77.5,36.2h0.3l0.5,1.3h0l0.5-1.3h0.3v1.7H79v-1.4h0l-0.6,1.4h-0.1l-0.6-1.4h0v1.4h-0.2V36.2z"/>
	</g>
	<g>
		<g>
			<path class="st1" d="M43.4,27l0.8-4.7c1.4-1,1.4-2.1,1.4-3.2c0-0.5,0-1.1,0.1-1.8l1.9-0.8l0,0c0.7-0.3,1.3-1.6,1.4-2.4
				c0-0.5-0.2-0.9-0.6-1.1c-0.8-0.5-2.3-1-3.4-1.2l-0.1,0c-1.1-0.2-1.8-0.3-4,0.3c0.1,0.2,0.2,0.6,0.4,0.8c0.3,0.3,0.7,0.3,0.8,0.3
				c0,0,0,0,0,0c-0.9,1.7-2,2.7-4.3,2.8c-0.9,0-1.7,0.2-2.5,0.4c-0.5,0.1-1.9,0.5-3.4,1.7l0,0l0,0l0,0l0,0c0.1,0.3,0.2,0.5,0.4,0.7
				c-0.4,1.1-0.3,2.4-0.2,2.8c-0.3,1.4-1.5,4.2-1.5,4.3l-0.1,0.1l0,0.1c0,0,0,4.9,0,6c0,0.4,0.2,1.1,0.5,1.7h2.6
				c0.1,0,0.1-0.1,0.1-0.1l-1-1.6l0.4-5.2c0.3-0.4,1.2-1.3,2-2.4c0.3-0.4,0.5-0.7,0.7-1c0.6-0.2,2.5-0.7,4.1-0.7
				c0,0.5,0,1.2,0.1,1.6c0.1,0.9,0.2,1.6,0.4,2.2c0.1,0.3,0.1,0.6,0.2,0.7c0.1,0.5,1,3.8,1.3,4.9c0.1,0.4,0.4,1,0.7,1.6h2.7
				c0,0,0.1-0.1,0.1-0.1L44.2,32L43.4,27z M43,21.5l-1,5.4c0,0-0.3-0.8-0.5-2.7c-0.1-0.6-0.1-2-0.1-2l0-0.6l-0.6-0.1
				c-2.3-0.3-5.4,0.7-5.5,0.7l-0.2,0.1L35,22.6c-0.2,0.3-0.5,0.7-0.8,1.1c-1,1.3-2.1,2.5-2.1,2.5L32,26.3c0-0.1,0-0.1,0-0.1
				c0.2-0.6,1.3-3.2,1.5-4.5l0-0.1l0-0.1c-0.1-0.4-0.2-1.7,0.3-2.5c0.8-1.3,2.7-1.6,4.2-1.7c3.5-0.2,4.9-2.1,5.8-4.3
				c0.3,0,0.6,0.1,1,0.1l0.1,0c0.8,0.1,2,0.6,2.8,1c0,0.3-0.4,1-0.6,1.2l-2.5,1l-0.1,0.3c-0.3,1-0.2,1.9-0.2,2.5c0,1.1,0,1.5-1,2.2
				L43,21.5z"/>
			<path class="st1" d="M62.8,7.6c-0.3-0.3-0.7-0.6-1-0.9c0,0.1-0.2,0.2-0.4,0.3c-0.3,0.1-0.7,0.2-1.1,0.2c0.2-0.3,0.4-0.6,0.6-1
				c-0.4-0.2-0.8-0.4-1.3-0.5c-0.3,0.5-0.5,0.9-0.7,1.1c0,0-0.1-0.1-0.1-0.1c-0.3-0.3-0.5-0.7-0.4-1.3c-0.4,0-1.4,0-1.4,0
				c-0.5,0.9-1.1,1.6-2.1,2.1c-1,0.4-1.4,0.3-1.4,0.3l0,0c-1.1-0.6-1.7-1.4-1.9-2.5c-0.2-1.9,0.8-2.9,0.8-3c-0.3-0.3-0.6-0.7-1-0.9
				c0,0-0.3,0.3-0.3,0.3c-0.4,0.4-1,0.6-1.7,0.6c0-0.4,0.2-1.1,0.5-1.7c-0.4-0.2-0.8-0.3-1.3-0.4c-0.3,0.6-0.5,1.2-0.5,1.8
				c-0.3-0.2-0.6-0.4-0.8-0.7c-0.2-0.4-0.3-0.8-0.1-1.3h0h0c-0.8,0-1.5,0.2-1.5,0.2h0c-0.2,0.5-0.3,1.1-0.3,1.7
				c-0.1,1,0,2.5,0.9,3.9c1.2,1.9,2.8,2.3,4.5,2.8c0.8,0.2,1.7,0.5,2.7,0.9c1.8,0.9,3.7,4.1,3.9,4.6c0.1,0.3-0.6,0.8-1.2,1.1
				L53.9,14l-0.3,0.3c-1.1,0.9-1.3,1.9-1.3,2.7c-0.1-0.1-0.2-0.3-0.3-0.4L51.5,16L51,16.4c-0.7,0.5-1.1,1.2-1.4,1.8
				c-0.4,0.7-0.8,1.3-1.6,1.8l-0.4,0.2l0.7,5.2c0,0.1,0,0.2,0,0.4l-0.2-0.1c-1.3-0.9-2.9-2.1-3.1-2.5c0-0.1-0.1-0.1-0.1-0.2
				l-0.3,1.7c0.8,0.7,1.9,1.5,2.5,1.9l0.6,5.2l-0.5,1.3l2.3,1.4v0c0.1,0,0.1,0,0.1-0.1c0.2-0.9,0.4-1.7,0.4-2
				c-0.1-2-0.4-7.1-0.4-7.1L49,20.9c0.9-0.6,1.3-1.4,1.7-2.1c0.2-0.3,0.3-0.6,0.5-0.8c0.2,0.3,0.3,0.7,0.3,0.8l0.2,0.6
				c0,0,0.1,0,0.1,0.1l0.6-0.3c0.9-0.4,1-1.3,1-1.9c0.1-0.6,0.1-1.2,0.6-1.7l2.1,1.1l0.3-0.1c0.3-0.1,2.9-1.1,2.3-2.9
				c-0.2-0.7-1.8-3.4-3.7-4.9c0.4-0.1,0.9-0.3,1.3-0.6c0.4-0.3,0.7-0.6,1-0.9c0.1,0.2,0.3,0.3,0.4,0.5c0.6,0.5,1.4,0.8,2.2,0.7
				c-0.9,0.5-2,0.8-3,0.9c0,0,0,0.1,0,0.1c0.3,0.4,0.6,0.8,0.9,1.1C60,10.3,61.8,9.2,62.8,7.6L62.8,7.6C62.8,7.6,62.8,7.6,62.8,7.6z
				 M47.6,5c-0.5-0.7-0.7-1.6-0.7-2.4c0.3,0.3,0.7,0.6,1.2,0.7c0.5,0.2,1.1,0.3,1.6,0.3c0.2,0,0.5,0,0.7-0.1c-0.1,0.6-0.2,1.2-0.1,2
				c0.1,0.6,0.2,1.1,0.5,1.6C49.5,6.7,48.4,6.3,47.6,5z"/>
			<g>
				<polygon class="st1" points="51.9,10 51.9,10 51.9,10 				"/>
				<path class="st1" d="M51.9,10c0-0.1,0.1-0.1,0-0.2c0,0,0,0,0,0c-0.7-0.2-1.6-0.5-2.4-0.8c-2.4,0.2-3.5-0.7-6.3-0.3
					c-4.5,0.7-5.3,3.2-9.3,4c-1.9,0.4-4,1.4-5.4,2.4l0,0l0,0l0,0c0.1,0.4,0.3,0.7,0.5,0.9c-0.5,1-0.7,2.3-0.4,3.7
					c-0.4,0.7-1.7,3.4-2.6,5.2L26,25.1l0,0.1c0,0.2-0.5,6-0.6,6.9c0,0.1,0,0.3,0.4,1.8h2.6c0.1,0,0.1-0.1,0.1-0.2l-0.9-1.5l0.9-5.9
					c0.3-0.2,0.8-0.6,1.5-1.1c0.3-0.7,0.5-1.4,0.8-2c-2,1.1-3.3,2.2-3.3,2.2l-0.1,0.1c0,0,0-0.1,0-0.1C30,20,30,20,30,19.8
					c0-0.1,0-0.1,0-0.2c0,0,0,0,0-0.1c-0.1-0.4-0.2-1.1-0.1-1.8c0,0,0-0.1,0-0.1c0-0.1,0-0.2,0.1-0.2c0,0,0-0.1,0-0.1
					c0.1-0.4,0.3-0.7,0.6-1.1c0.7-0.8,1.2-1.2,2-1.6c0.8-0.4,2.7-0.7,3.5-1.1c0.9-0.4,1.7-0.9,2.5-1.4c1.1-0.8,2.3-1.5,3.9-1.8
					c2.2-0.4,3.2-0.3,4.3-0.1c0.6,0.1,1.4,0.3,2.2,0.2C50,10.4,50.8,10.3,51.9,10C51.9,10,51.9,10,51.9,10z"/>
			</g>
		</g>
		<g>
			<path class="st1" d="M17.8,62.4h-2v0.8H18l-0.1,0.7h-3v-3.6h3V61h-2.1v0.7h2V62.4z"/>
			<path class="st1" d="M21.6,63.9l-1.5-3.6h1l0.6,1.7c0.2,0.7,0.3,1,0.4,1.2h0c0.1-0.2,0.1-0.4,0.5-1.3l0.6-1.7h0.9l-1.5,3.6H21.6z
				"/>
			<path class="st1" d="M29.6,62.4h-2v0.8h2.3l-0.1,0.7h-3v-3.6h3V61h-2.1v0.7h2V62.4z"/>
			<path class="st1" d="M33.3,62.5v1.4h-0.9v-3.6h2c0.8,0,1.3,0.4,1.3,1c0,0.5-0.3,0.7-0.6,0.9c0.1,0.1,0.5,0.2,0.5,0.9v0.2
				c0,0.3,0,0.5,0,0.7h-0.9c-0.1-0.2-0.1-0.4-0.1-0.8V63c0-0.4-0.1-0.5-0.7-0.5H33.3z M33.3,61.8h0.9c0.4,0,0.6-0.2,0.6-0.5
				c0-0.3-0.2-0.4-0.6-0.4h-0.9V61.8z"/>
			<path class="st1" d="M39.3,63.9v-1.3c0,0,0-0.1,0-0.1l-1.5-2.2h1c0.4,0.6,0.8,1.3,1,1.6c0.2-0.3,0.6-1,1-1.6h1l-1.5,2.3
				c0,0,0,0.1,0,0.1v1.3H39.3z"/>
			<path class="st1" d="M44,60.3h1.6c1.2,0,1.9,0.8,1.9,1.8c0,1.2-0.9,1.9-1.9,1.9H44V60.3z M44.9,63.2h0.6c0.7,0,1.1-0.4,1.1-1.2
				c0-0.7-0.4-1.1-1.1-1.1h-0.6V63.2z"/>
			<path class="st1" d="M51,63.1l-0.3,0.8h-0.9l1.5-3.6h1.1l1.5,3.6h-1l-0.3-0.8H51z M52.3,62.4c-0.3-0.8-0.5-1.3-0.6-1.5h0
				c-0.1,0.3-0.3,0.8-0.5,1.5H52.3z"/>
			<path class="st1" d="M57.2,63.9v-1.3c0,0,0-0.1,0-0.1l-1.5-2.2h1c0.4,0.6,0.8,1.3,1,1.6c0.2-0.3,0.6-1,1-1.6h1l-1.5,2.3
				c0,0,0,0.1,0,0.1v1.3H57.2z"/>
			<path class="st1" d="M14.7,69c-0.2,0.6-0.7,1.2-1.8,1.2c-1.3,0-1.9-0.9-1.9-1.9c0-1,0.7-1.9,2-1.9c1.1,0,1.7,0.6,1.8,1.2h-0.9
				c-0.1-0.2-0.3-0.5-0.9-0.5c-0.7,0-1,0.5-1,1.2c0,0.7,0.3,1.2,1,1.2c0.5,0,0.7-0.2,0.9-0.6H14.7z"/>
			<path class="st1" d="M21.1,68.3c0,1-0.7,1.9-2,1.9c-1.2,0-1.9-0.8-1.9-1.9c0-1,0.7-1.9,2-1.9C20.4,66.4,21.1,67.3,21.1,68.3z
				 M18.1,68.3c0,0.7,0.3,1.2,1.1,1.2c0.7,0,1-0.6,1-1.2c0-0.6-0.3-1.2-1-1.2C18.4,67.1,18.1,67.7,18.1,68.3z"/>
			<path class="st1" d="M27.1,68.7c0-0.6,0-1.3,0-1.7h0c-0.2,0.7-0.5,1.7-1,3.1h-0.8c-0.3-1.2-0.7-2.4-0.9-3.1h0
				c0,0.4,0.1,1.1,0.1,1.7v1.3h-0.8v-3.6h1.3c0.4,1.1,0.7,2.1,0.8,2.6h0c0.2-0.6,0.5-1.5,0.8-2.6H28v3.6h-0.9V68.7z"/>
			<path class="st1" d="M34.3,68.7c0-0.6,0-1.3,0-1.7h0c-0.2,0.7-0.5,1.7-1,3.1h-0.8c-0.3-1.2-0.7-2.4-0.9-3.1h0
				c0,0.4,0.1,1.1,0.1,1.7v1.3h-0.8v-3.6h1.3c0.4,1.1,0.7,2.1,0.8,2.6h0c0.2-0.6,0.5-1.5,0.8-2.6h1.3v3.6h-0.9V68.7z"/>
			<path class="st1" d="M38.9,66.5v2.1c0,0.8,0.4,1,0.9,1c0.5,0,0.8-0.2,0.8-1v-2.1h0.9v2.1c0,1.1-0.6,1.6-1.7,1.6
				c-1,0-1.7-0.5-1.7-1.6v-2.1H38.9z"/>
			<path class="st1" d="M44.3,70.1v-3.6h1c1,1.6,1.4,2.1,1.7,2.6h0c0-0.4,0-1.1,0-1.7v-0.9h0.8v3.6h-1c-0.3-0.5-1.5-2.4-1.7-2.8h0
				c0,0.4,0,1,0,1.6v1.2H44.3z"/>
			<path class="st1" d="M51.6,66.5v3.6h-0.9v-3.6H51.6z"/>
			<path class="st1" d="M55.3,67.2H54v-0.7h3.4v0.7h-1.3v2.9h-0.9V67.2z"/>
			<path class="st1" d="M60.9,70.1v-1.3c0,0,0-0.1,0-0.1l-1.5-2.2h1c0.4,0.6,0.8,1.3,1,1.6c0.2-0.3,0.6-1,1-1.6h1l-1.5,2.3
				c0,0,0,0.1,0,0.1v1.3H60.9z"/>
		</g>
		<g>
			<polygon class="st0" points="3.6,36.2 0,36.2 0,63.9 9,63.9 9.5,60.3 3.6,60.3 			"/>
			<rect x="56.1" y="36.2" class="st0" width="3.6" height="20.9"/>
			<path class="st0" d="M18.9,36.2h-5.8c-1.2,0-2.2,1-2.2,2.2v16.5c0,1.2,1,2.2,2.2,2.2h5.8c1.2,0,2.2-1,2.2-2.2V38.4
				C21.1,37.2,20.1,36.2,18.9,36.2z M17.5,52.9c0,0.3-0.2,0.6-0.6,0.6h-2c-0.3,0-0.6-0.2-0.6-0.6V40.4c0-0.3,0.2-0.6,0.6-0.6h2
				c0.3,0,0.6,0.2,0.6,0.6L17.5,52.9z"/>
			<path class="st0" d="M74.9,42.7v-4.2c0-1.2-1-2.2-2.2-2.2h-5.8c-1.2,0-2.2,1-2.2,2.2v23.3c0,1.2,1,2.2,2.2,2.2h5.8
				c1.2,0,2.2-1,2.2-2.2v-5.9h-3.6v4c0,0.3-0.2,0.6-0.6,0.6h-2c-0.3,0-0.6-0.2-0.6-0.6l0-19.4c0-0.3,0.2-0.6,0.6-0.6h2
				c0.3,0,0.6,0.2,0.6,0.6v3.1L74.9,42.7z"/>
			<path class="st0" d="M34.3,36.2h-9.1v3.6h1v13.7h-1v3.6h9.1c1.2,0,2.2-1,2.2-2.2V38.4C36.5,37.2,35.5,36.2,34.3,36.2z M32.9,52.9
				c0,0.3-0.2,0.6-0.6,0.6h-2.5V39.8l2.5,0c0.3,0,0.6,0.2,0.6,0.6L32.9,52.9z"/>
			<path class="st0" d="M47.5,46.5h4.6l0,3.6h-1v4.8c0,1.2-1,2.2-2.2,2.2h-5.8c-1.2,0-2.2-1-2.2-2.2V38.4c0-1.2,1-2.2,2.2-2.2h5.8
				c1.2,0,2.2,1,2.2,2.2v4.2l-3.6,0.8v-3.1c0-0.3-0.2-0.6-0.6-0.6h-2c-0.3,0-0.6,0.2-0.6,0.6v12.6c0,0.3,0.2,0.6,0.6,0.6l2,0
				c0.3,0,0.6-0.2,0.6-0.6V46.5z"/>
		</g>
	</g>
</g>
</svg>
